<svg width="77" height="77" viewBox="0 0 77 77" fill="none" xmlns="http://www.w3.org/2000/svg">
<path d="M38.4617 70.7737C34.2457 70.8138 30.0639 70.0132 26.161 68.4188C22.2581 66.8244 18.7123 64.4681 15.731 61.4878C12.7496 58.5074 10.3926 54.9628 8.79761 51.0612C7.20266 47.1596 6.40181 42.9793 6.4419 38.7646C6.4419 30.2753 9.81538 22.1336 15.8203 16.1307C21.8251 10.1279 29.9695 6.75552 38.4617 6.75552C46.9539 6.75552 55.0983 10.1279 61.1032 16.1307C67.108 22.1336 70.4815 30.2753 70.4815 38.7646C70.5216 42.9793 69.7208 47.1596 68.1258 51.0612C66.5309 54.9628 64.1738 58.5074 61.1925 61.4878C58.2111 64.4681 54.6653 66.8244 50.7624 68.4188C46.8595 70.0132 42.6778 70.8138 38.4617 70.7737ZM38.4617 0.993869C31.0133 1.03339 23.7435 3.27745 17.5696 7.44291C11.3957 11.6084 6.59444 17.5086 3.77143 24.399C0.948412 31.2895 0.230213 38.8615 1.70753 46.1596C3.18484 53.4576 6.79143 60.1547 12.0722 65.4059C17.353 70.657 24.0714 74.2269 31.3796 75.6651C38.6878 77.1032 46.2583 76.3452 53.1361 73.4867C60.0138 70.6282 65.8905 65.7973 70.0246 59.6035C74.1587 53.4097 76.3651 46.1306 76.3652 38.6846C76.3706 33.7166 75.3923 28.7966 73.4869 24.2083C71.5815 19.62 68.7866 15.4539 65.2632 11.9504C61.7398 8.44676 57.5578 5.67485 52.9579 3.79441C48.358 1.91397 43.4313 0.962189 38.4617 0.993869Z" fill="#ACA198"/>
</svg>
