<svg width="45" height="73" viewBox="0 0 45 73" fill="none" xmlns="http://www.w3.org/2000/svg">
<path d="M15.366 35.9444H6.30046V5.61576H15.6861C19.6963 5.36211 23.7005 6.19858 27.2734 8.03643C29.4072 9.27169 31.1687 11.0586 32.373 13.2095C33.5773 15.3604 34.18 17.7958 34.1176 20.2599C34.1176 26.2617 32.1164 30.1427 29.2746 32.3634C26.4329 34.584 22.2103 35.9444 15.266 35.9444H15.366ZM29.2746 49.6283C25.4723 43.8467 23.471 41.626 20.0089 39.6255H20.7493C32.5366 39.6255 40.4416 32.4634 40.4416 20.36C40.5041 17.4459 39.9001 14.5561 38.6758 11.9108C37.4516 9.26546 35.6393 6.9345 33.3772 5.09559C29.915 2.25478 25.052 0.554321 15.466 0.554321H0.516846V72.7949H6.30046V39.7255H9.68243C14.3253 39.7255 16.9469 42.3662 19.6886 45.9473C26.0093 54.4555 31.6757 63.4304 36.6392 72.7949H44.1238C42.2226 69.854 34.1176 56.8904 29.2746 49.6283Z" fill="#ACA198"/>
</svg>
