<svg width="570" height="111" viewBox="0 0 570 111" fill="none" xmlns="http://www.w3.org/2000/svg">
<path d="M532.706 103.969C537.058 103.969 539.416 103.26 539.416 101.925C539.416 100.128 535.08 98.8745 526.408 98.3304C512.212 97.4731 497.621 96.9125 483.029 96.6817C443.592 96.1376 401.17 95.8243 320.332 95.8243C282.411 95.9068 254.482 96.1376 235.934 96.6817C227.261 96.6817 222.925 97.3082 222.925 98.5613C222.925 99.1218 224.574 99.8143 227.657 100.688C233.835 102.288 240.204 103.026 246.584 102.881C248.959 102.881 251.712 102.881 254.482 102.634C277.35 101.941 310.539 101.545 353.406 101.545C439.371 101.545 485.305 102.32 526.358 103.887C526.754 103.887 527.545 103.887 528.716 103.969C529.886 104.052 531.09 103.969 532.656 103.969" fill="white"/>
<path d="M562.218 83.3764C563.106 83.4003 563.98 83.153 564.724 82.6674C564.992 82.5259 565.223 82.3216 565.395 82.0718C565.567 81.822 565.676 81.5342 565.713 81.233C565.579 80.315 565.271 79.4309 564.806 78.628C564.175 77.2895 563.87 75.8205 563.916 74.3413C563.916 67.9937 565.895 57.6067 569.819 43.0154C569.942 42.4299 570.003 41.833 570 41.2348C569.914 40.4856 569.616 39.7767 569.139 39.1922C568.663 38.6077 568.029 38.1722 567.312 37.9373C566.991 37.8822 566.662 37.8822 566.34 37.9373C562.927 38.2011 556.761 45.8182 547.726 60.8382C545.038 65.4052 543.422 67.6475 542.779 67.7299C542.433 67.7299 542.252 67.1034 542.252 65.9493C542.463 62.04 543.122 58.1677 544.214 54.4081C545.731 48.5057 546.72 44.6641 547.264 42.867C547.365 42.4283 547.425 41.9813 547.445 41.5315C547.477 40.658 547.211 39.7997 546.689 39.0983C546.167 38.3968 545.422 37.8942 544.576 37.6735C544.132 37.5716 543.68 37.5109 543.224 37.4921C542.331 37.4869 541.464 37.7988 540.779 38.3724C540.094 38.946 539.634 39.7441 539.482 40.6247C535.921 52.4791 534.189 59.6676 534.189 62.2561V66.2955C534.189 70.7636 535.525 73.6324 538.311 74.9678C539.033 75.3296 539.829 75.516 540.636 75.5119C542.12 75.5262 543.577 75.1203 544.84 74.3413C549.093 71.4415 552.638 67.6208 555.211 63.1629C555.76 62.1146 556.453 61.1488 557.272 60.2941C557.354 60.2941 557.437 60.3765 557.437 60.5579C557.437 60.7393 557.354 61.1844 557.272 61.8109C556.37 65.6294 555.856 69.5292 555.738 73.451C555.738 78.0015 556.909 81.0517 559.316 82.5685C560.18 83.0956 561.173 83.375 562.185 83.3764H562.218ZM519.681 76.0395C520.735 76.017 521.774 75.7756 522.731 75.3306C525.987 73.5542 528.493 70.662 529.787 67.1858C531.303 64.2169 532.275 61.0006 532.656 57.6891C532.755 55.4633 532.755 54.2103 532.755 53.9465C532.755 49.2806 531.502 45.8017 528.996 43.3781C528.409 42.8823 527.975 42.2307 527.743 41.4985C527.281 38.5473 525.319 37.0305 522.005 37.0305C520.986 37.0427 519.992 37.3435 519.137 37.8979C518.282 38.4524 517.601 39.2378 517.174 40.1631C515.023 44.1187 513.283 48.2843 511.981 52.5945C510.684 56.3136 509.935 60.2012 509.755 64.1357C509.722 65.827 510.025 67.5081 510.646 69.0819C511.393 71.3747 512.953 73.3155 515.031 74.5392C516.434 75.4034 518.034 75.897 519.681 75.9736V76.0395ZM518.246 68.3729C517.979 67.4412 517.862 66.4727 517.9 65.5041C518.046 60.8281 519.046 56.2182 520.851 51.9021C521.564 49.6571 522.789 47.6083 524.429 45.9171C525.295 47.6976 525.725 49.6588 525.682 51.6383C525.636 55.4513 524.747 59.207 523.077 62.6353C522.116 65.0118 520.424 67.0211 518.246 68.3729V68.3729ZM498.56 102.287C500.885 102.007 502.056 101.117 502.056 99.6823C502.038 99.3128 501.879 98.9643 501.61 98.7096C499.467 96.6487 498.313 93.3347 498.313 88.5864C498.313 79.1886 501.907 64.7952 509.145 45.5544C509.501 44.5767 509.685 43.5448 509.689 42.5043C509.667 41.843 509.463 41.2007 509.1 40.6479C508.736 40.0952 508.227 39.6536 507.628 39.3717C506.8 38.93 505.88 38.6873 504.941 38.6627C504.214 38.7392 503.511 38.97 502.88 39.3396C502.248 39.7092 501.703 40.2091 501.281 40.8061C490.443 54.3257 484.716 61.1295 484.101 61.2174C483.474 61.2174 483.112 60.2282 483.112 58.1672C483.187 55.1051 483.485 52.0524 484.002 49.0333C484.81 43.6749 485.436 40.3609 485.799 39.1409C485.844 38.8458 485.844 38.5457 485.799 38.2506C485.799 35.3818 484.282 33.9474 481.232 33.9474C479.897 34.0463 478.907 35.118 478.38 37.2448C477.852 39.3717 477.127 42.5208 476.401 46.5437C475.641 50.3457 475.221 54.2081 475.148 58.0848C475.148 62.2891 476.055 65.1579 477.753 66.6747C479.239 68.1291 481.231 68.9507 483.31 68.9664C486.607 68.9664 489.904 66.922 492.971 62.8826C493.779 61.8109 494.323 61.2339 494.504 61.2339C494.686 61.2339 494.686 61.3988 494.686 61.679C494.602 62.7379 494.42 63.7866 494.142 64.8116C491.636 75.3635 490.383 83.5083 490.383 89.3283C490.422 91.174 490.694 93.0075 491.19 94.7856C492.444 99.7978 494.768 102.304 498.165 102.304L498.56 102.287ZM439.783 75.7922C441.432 75.7922 442.635 74.3578 443.262 71.5879C445.504 61.4812 450.154 53.7816 457.227 48.3243C457.512 48.1247 457.809 47.943 458.117 47.7802C459.469 47.1537 460.178 46.4448 460.178 45.7358C460.146 45.2163 459.963 44.7175 459.65 44.3014C459.421 43.8255 459.067 43.4207 458.625 43.1304C458.184 42.84 457.672 42.6749 457.144 42.6527C455.96 42.6605 454.793 42.9367 453.731 43.4605C450.541 44.6534 447.919 47.0095 446.394 50.0555C446.131 50.5006 445.949 50.7644 445.768 50.7644C445.587 50.7644 445.422 50.3193 445.422 49.429C445.439 48.2724 445.616 47.1238 445.949 46.0161C446.195 45.2348 446.345 44.4264 446.394 43.6089C446.394 40.3115 444.614 38.6627 440.937 38.6627C439.42 38.6627 438.53 39.4706 438.25 41.1688C436.997 49.1322 435.661 59.1565 434.326 71.3241C434.298 71.8145 434.37 72.3054 434.538 72.7672C434.705 73.229 434.964 73.6523 435.298 74.0116C436.521 75.1242 438.13 75.7158 439.783 75.6603V75.7922ZM419.998 75.8417C421.048 75.8207 422.082 75.5792 423.032 75.1327C426.297 73.3629 428.81 70.4692 430.105 66.988C431.613 64.0161 432.584 60.8011 432.974 57.4913C433.056 55.2655 433.056 54.0124 433.056 53.7486C433.056 49.0827 431.803 45.6039 429.297 43.1803C428.722 42.6739 428.29 42.0259 428.044 41.3007C427.599 38.3495 425.637 36.8326 422.323 36.8326C421.304 36.8449 420.309 37.1457 419.454 37.7001C418.599 38.2545 417.919 39.0399 417.492 39.9652C415.334 43.9175 413.594 48.0838 412.299 52.3967C410.998 56.1154 410.243 60.0027 410.056 63.9378C410.029 65.6303 410.337 67.3114 410.963 68.884C411.711 71.1769 413.271 73.1176 415.349 74.3413C416.752 75.2056 418.352 75.6992 419.998 75.7757V75.8417ZM418.564 68.175C418.29 67.2443 418.168 66.2758 418.201 65.3063C418.355 60.6312 419.355 56.0228 421.152 51.7042C421.876 49.4604 423.106 47.4128 424.747 45.7193C425.605 47.5024 426.034 49.4617 426 51.4404C425.946 55.2526 425.057 59.0066 423.395 62.4375C422.434 64.8139 420.742 66.8233 418.564 68.175V68.175ZM393.058 110.762C394.378 110.581 395.627 110.056 396.681 109.24C397.734 108.424 398.554 107.345 399.059 106.112C400.873 102.74 401.941 99.0183 402.192 95.1978C402.456 91.5211 402.555 88.3885 402.555 85.9814C402.555 77.0233 401.302 70.0436 398.795 65.0425C398.608 64.6515 398.512 64.223 398.515 63.7894C398.505 63.6351 398.544 63.4814 398.627 63.3509C398.71 63.2204 398.833 63.1199 398.977 63.064C399.864 62.7363 400.729 62.3507 401.565 61.9099C403.173 61.0623 404.944 60.5729 406.759 60.4755C407.908 60.5322 409.02 60.9029 409.974 61.5471C410.589 61.9433 411.303 62.1603 412.035 62.1737C412.471 62.1911 412.906 62.1115 413.308 61.9404C413.71 61.7693 414.069 61.5111 414.36 61.1844C414.851 60.6785 415.138 60.0094 415.167 59.3049C415.113 58.7392 414.937 58.1918 414.653 57.6998C414.368 57.2077 413.981 56.7824 413.519 56.4526C412.707 55.5281 411.658 54.8438 410.485 54.4741C409.888 54.413 409.288 54.3855 408.688 54.3916C407.089 54.4467 405.501 54.6845 403.956 55.1006C402.67 55.4751 401.35 55.7182 400.016 55.826C399.109 55.826 398.664 55.1006 398.664 53.6827C398.698 52.467 398.881 51.26 399.208 50.0885C401.269 42.4878 402.34 37.657 402.34 35.695C402.34 33.3703 400.906 32.1997 397.955 32.1997C397.309 32.156 396.67 32.3495 396.158 32.7438C395.449 33.3703 394.641 35.4147 393.833 38.7287C392.316 44.6311 391.327 49.5609 390.7 53.4024C390.499 55.38 389.785 57.2708 388.628 58.8874C387.471 60.5039 385.912 61.7902 384.105 62.6188C382.572 63.3443 381.863 63.9708 381.781 64.5973C381.713 65.0116 381.68 65.4307 381.682 65.8503C381.781 66.8231 382.572 67.631 384.105 68.2575C385.639 68.884 386.43 69.5105 386.512 69.9062C386.561 70.2719 386.65 70.6312 386.776 70.9779V71.7858C386.774 72.568 386.686 73.3477 386.512 74.1105C384.871 81.8851 383.944 89.7934 383.743 97.7368C383.781 99.8316 383.929 101.923 384.188 104.002C384.293 105.717 385.022 107.334 386.236 108.548C387.451 109.763 389.068 110.492 390.783 110.597L393.058 110.762ZM392.431 103.689C391.986 103.689 391.722 102.98 391.722 101.463C391.869 92.6256 392.646 83.81 394.047 75.0832C394.137 73.8931 394.375 72.7189 394.756 71.5879C394.917 71.3618 395.099 71.1519 395.3 70.9614C396.009 71.5879 396.553 73.7478 396.817 77.2266C396.656 82.1265 396.105 87.0057 395.168 91.8179C393.816 99.5999 392.844 103.54 392.382 103.623L392.431 103.689ZM179.432 75.6768C182.377 75.2261 185.51 73.3466 188.829 70.0381C191.682 67.0869 193.116 64.8611 193.116 63.3278V60.8217C193.039 58.0518 190.176 56.3536 184.526 55.7271C181.575 55.3644 180.058 54.2103 179.976 52.1494C180.15 45.8716 182.525 39.8548 186.686 35.1509C187.451 34.3063 187.92 33.2356 188.021 32.1008C188.021 31.128 186.768 30.2212 184.345 29.4133C183.812 29.2406 183.256 29.1516 182.696 29.1495C179.019 29.1495 175.986 33.09 173.562 41.0534C172.381 44.3403 171.66 47.7747 171.419 51.2591C171.419 55.9085 173.826 58.5959 178.574 59.3049C181.443 59.75 183.042 60.3765 183.323 60.9536C183.543 61.4063 183.693 61.89 183.768 62.388C183.768 63.9048 182.251 66.1471 179.3 68.9829C177.057 71.1263 176.002 72.5607 176.002 73.3686C176.002 74.8854 177.156 75.5943 179.399 75.5943L179.432 75.6768ZM166.967 32.2986C167.899 32.2488 168.787 31.8841 169.485 31.2641C170.183 30.6441 170.649 29.8056 170.809 28.8857C171.781 26.2171 172.472 23.4542 172.87 20.6421C172.87 18.9933 171.518 17.6908 168.847 16.8005C168.327 16.5711 167.766 16.4478 167.198 16.4378C165.681 16.4378 164.708 17.3281 164.247 19.2077C163.576 21.5971 163.216 24.063 163.175 26.5445C163.164 27.4711 163.225 28.3972 163.356 29.3144C163.429 30.0742 163.763 30.7853 164.301 31.3265C164.839 31.8677 165.548 32.2054 166.308 32.2821L166.967 32.2986ZM162.664 78.1004C164.461 77.9191 165.351 77.4739 165.434 76.6825C165.484 75.5341 165.367 74.3846 165.088 73.2696C164.796 72.2524 164.673 71.1941 164.725 70.137C164.725 67.5485 165.615 59.8489 167.495 46.8734L167.759 45.2247C167.676 43.0813 166.242 41.9272 163.29 41.9272C160.883 41.9272 159.531 42.9989 159.268 45.0598C159.004 47.1207 158.641 49.1652 158.278 51.2261C157.102 57.5629 156.265 63.9581 155.772 70.3844C155.715 71.6185 155.964 72.8477 156.498 73.9621C158.015 76.732 159.894 78.0674 162.219 78.0674L162.664 78.1004ZM102.617 78.1004C103.719 78.007 104.788 77.6751 105.75 77.1277C107.398 76.3198 109.163 75.3306 111.042 74.2589C115.988 71.3076 120.259 69.8733 123.556 69.8733C125.734 69.9233 127.886 70.3471 129.92 71.1263C131.074 71.1263 131.701 70.5822 131.701 69.4775C131.638 68.8902 131.355 68.3484 130.909 67.9607C129.537 66.5964 127.901 65.5271 126.1 64.8182C124.3 64.1094 122.374 63.7762 120.44 63.8389C118.643 63.8389 117.752 63.5751 117.752 62.9486C117.752 62.322 118.28 61.7945 119.269 60.7063C123.401 56.3944 127.08 51.6709 130.25 46.6096C131.401 45.0095 132.055 43.1055 132.129 41.1358C132.071 39.8694 131.727 38.6326 131.121 37.5188C130.516 36.405 129.665 35.4431 128.634 34.7058C126.421 32.9783 123.655 32.1167 120.852 32.2821C119.962 32.2821 119.071 32.3811 118.165 32.4635C113.614 33.0076 110.201 33.9803 108.157 35.5136C106.112 37.047 104.859 38.4649 104.859 39.7179C104.961 40.4935 105.217 41.2408 105.614 41.915C106.011 42.5892 106.539 43.1765 107.168 43.6419C107.674 44.133 108.343 44.4206 109.047 44.4498C109.371 44.4347 109.688 44.3469 109.973 44.1927C110.259 44.0386 110.506 43.8221 110.696 43.5595C111.722 42.5895 112.863 41.7479 114.092 41.0534C115.683 40.0834 117.335 39.2187 119.039 38.4649C120.252 37.9159 121.552 37.5812 122.88 37.4756C123.968 37.4756 124.529 37.8384 124.529 38.6298C124.463 39.4207 124.22 40.1868 123.82 40.872C121.02 46.5206 117.464 51.7621 113.251 56.4526C109.016 61.1549 104.507 65.6032 99.7483 69.7743C99.124 70.1764 98.5874 70.7007 98.1709 71.3155C97.7544 71.9304 97.4666 72.6231 97.3247 73.3521C97.3247 74.6051 98.3139 75.8581 100.193 77.2101C100.865 77.7937 101.712 78.136 102.601 78.1829L102.617 78.1004ZM65.9493 87.3993C67.5201 87.4611 69.0837 87.1563 70.5163 86.509C80.4662 81.6625 88.6646 73.8444 93.9778 64.1357C95.2265 62.1061 95.9621 59.8029 96.1211 57.4253C96.1211 53.0397 93.1699 49.8082 87.3499 47.7637C86.0144 47.3021 85.3054 46.7745 85.3054 46.2304C85.3054 45.6863 85.833 44.9774 86.9542 43.9057C89.1965 41.4986 90.367 39.5201 90.4495 37.9208C90.4431 37.0159 90.2287 36.1246 89.823 35.3158C88.0258 31.837 84.4481 30.0399 79.1721 30.0399C75.6908 30.0436 72.2486 30.7736 69.0654 32.1832C67.4167 32.9087 66.5593 33.7165 66.4604 34.6069C66.4816 34.8515 66.5429 35.091 66.6418 35.3158C67.631 37.5581 68.8841 38.7122 70.5822 38.8111C71.4431 38.7783 72.2914 38.5941 73.0883 38.267C75.6427 37.0723 78.3594 36.2612 81.1506 35.8599C82.0409 35.8599 82.4861 36.1237 82.4861 36.6678C82.3055 37.5488 81.8698 38.3573 81.2331 38.9925C77.5698 43.4681 73.3602 47.4672 68.7027 50.8963C66.6418 52.4132 65.669 53.4024 65.669 54.0289C65.7368 54.7067 65.9812 55.3548 66.378 55.9085C66.817 56.811 67.4702 57.5924 68.2806 58.1844C69.0911 58.7764 70.0341 59.1611 71.0274 59.3049C72.1227 59.2317 73.1772 58.8612 74.0776 58.2332C77.4723 56.0003 81.2689 54.4492 85.256 53.6662L86.509 53.4024C87.9434 53.4024 88.6524 53.93 88.6524 55.0511C88.6489 55.6184 88.5312 56.1791 88.3061 56.6999C83.9974 67.5156 75.9406 75.8362 64.1357 81.6617C63.6855 81.8436 63.2033 81.9334 62.7178 81.9255L61.5472 81.843C61.3416 81.816 61.1325 81.8366 60.9362 81.9032C60.7398 81.9699 60.5614 82.0808 60.4148 82.2275C60.2681 82.3741 60.1572 82.5525 60.0906 82.7489C60.0239 82.9452 60.0033 83.1543 60.0304 83.3599C60.0103 83.9713 60.1678 84.5754 60.4838 85.0991C60.7998 85.6229 61.2608 86.0438 61.811 86.3111C63.1126 86.9835 64.5506 87.3501 66.0153 87.3828L65.9493 87.3993ZM47.7638 79.7821C50.0201 79.7617 52.2017 78.9705 53.9465 77.5399C57.9414 74.3734 60.8279 70.0206 62.1902 65.1084C63.5751 60.9427 64.3634 56.602 64.5314 52.2153C64.5314 47.3021 63.3663 43.9057 61.0361 42.0262C59.8479 41.0571 58.5602 40.217 57.1945 39.5201C55.5481 38.7796 54.0464 37.7524 52.7594 36.4864C51.6492 35.4092 50.183 34.7758 48.6376 34.7058C47.3021 34.7058 46.1315 35.8599 44.9609 37.8384C39.9569 46.6744 37.3588 56.6687 37.4262 66.8231L37.5252 70.1206C37.4909 72.0237 38.0375 73.8922 39.092 75.4769C40.1465 77.0616 41.6589 78.2873 43.4276 78.9907C44.7783 79.5849 46.2388 79.8882 47.7143 79.8811L47.7638 79.7821ZM47.0878 73.6159C45.2082 73.6159 44.2355 71.9671 44.2355 68.6697C44.3367 65.4978 44.7845 62.3464 45.571 59.2719C48.154 47.8077 50.3908 42.0811 52.2813 42.0921C52.8265 42.1218 53.3522 42.3046 53.7981 42.6197C55.057 43.4241 56.089 44.5373 56.796 45.8532C57.5031 47.1692 57.8616 48.6442 57.8375 50.1379C57.6698 53.18 57.1158 56.1883 56.1888 59.0905C55.1993 62.5774 53.8164 65.9404 52.067 69.1148C50.4183 71.8847 48.7695 73.4015 47.1208 73.5829L47.0878 73.6159ZM5.34189 78.2323C6.44424 78.1389 7.51311 77.807 8.47449 77.2596C10.1232 76.4517 11.8709 75.4625 13.7504 74.3908C18.6966 71.4395 22.9669 70.0051 26.2808 70.0051C28.4528 70.0567 30.5998 70.4805 32.6284 71.2582C33.799 71.2582 34.4255 70.7141 34.4255 69.6094C34.3551 69.0207 34.0669 68.4796 33.6177 68.0926C32.2343 66.7282 30.5853 65.6626 28.773 64.9621C26.9606 64.2615 25.0237 63.941 23.0823 64.0202C21.2851 64.0202 20.3948 63.7564 20.3948 63.1299C20.3948 62.5034 20.9389 61.9758 21.9117 60.8876C26.0267 56.5363 29.684 51.774 32.8263 46.6756C33.9773 45.0755 34.6311 43.1715 34.7058 41.2018C34.6688 39.9342 34.3455 38.6915 33.7602 37.5665C33.1748 36.4416 32.3427 35.4636 31.3259 34.7058C29.1087 32.9745 26.3354 32.1126 23.5274 32.2821C22.6371 32.2821 21.7468 32.3811 20.8565 32.4635C16.2895 33.0076 12.8931 33.9803 10.8322 35.5136C8.77126 37.047 7.53471 38.4649 7.53471 39.7179C7.62793 40.4885 7.87433 41.2326 8.25941 41.9065C8.64449 42.5803 9.16047 43.1704 9.77699 43.6419C10.2829 44.133 10.952 44.4206 11.6565 44.4498C11.9808 44.4359 12.2977 44.3486 12.5833 44.1943C12.869 44.0401 13.1158 43.823 13.3053 43.5595C14.3316 42.5895 15.4721 41.7479 16.7017 41.0534C18.2939 40.0866 19.9459 39.222 21.6479 38.4649C22.8668 37.914 24.1723 37.5793 25.5059 37.4756C26.5776 37.4756 27.1546 37.8384 27.1546 38.6298C27.1184 39.438 26.8985 40.2274 26.5116 40.938C23.7172 46.586 20.1673 51.8275 15.9597 56.5185C11.7231 61.225 7.20853 65.6735 2.44013 69.8403C1.81854 70.2319 1.28215 70.7447 0.862933 71.348C0.443714 71.9514 0.15024 72.6329 0 73.3521C0 74.6051 0.972758 75.8581 2.85231 77.2101C3.52887 77.796 4.38209 78.1384 5.27594 78.1829" fill="white"/>
<path d="M344.272 76.4023C345.344 76.4023 346.514 76.3199 347.767 76.2209C350.529 75.7201 353.116 74.5227 355.285 72.7421C357.599 71.1259 359.622 69.1303 361.27 66.8396C362.206 65.6075 362.824 64.1634 363.068 62.6354C363.067 62.2135 362.978 61.7965 362.808 61.4105C362.638 61.0246 362.389 60.6781 362.078 60.3931C361.711 60.13 361.276 59.9757 360.825 59.9479C359.479 60.2473 358.278 61.0049 357.429 62.0913C356.258 63.0805 354.379 64.5974 351.79 66.4769C347.767 69.4281 344.635 70.8625 342.228 70.8625C340.579 70.8625 339.54 69.8733 338.93 67.9938C338.83 67.6443 338.77 67.2849 338.749 66.9221C338.749 66.1142 339.557 65.2733 341.172 64.5149C345.739 62.3551 350.57 57.5243 355.665 49.9236C356.497 48.4463 356.955 46.7879 357 45.0928C357.013 43.8439 356.706 42.6125 356.11 41.5151C355.407 39.868 354.235 38.4643 352.74 37.4792C351.244 36.494 349.492 35.971 347.701 35.9754C343.134 35.9754 338.93 39.9158 334.907 47.7803C333.037 51.111 331.764 54.7437 331.148 58.5135C330.802 61.2834 330.62 62.9816 330.62 63.7895C330.62 72.198 335.171 76.4023 344.206 76.4023H344.272ZM340.81 57.6232C340.183 57.5243 339.919 57.1781 339.919 56.7329C339.919 56.2878 342.162 51.9846 346.63 44.3839C346.75 44.2434 346.899 44.1307 347.067 44.0539C347.235 43.977 347.418 43.9377 347.602 43.9387C348.229 43.9387 348.509 44.2025 348.509 44.6477C348.509 45.6369 347.438 48.0441 345.212 51.9846C344.172 54.1806 342.644 56.1095 340.744 57.6232H340.81ZM328.856 98.8416C331.082 98.7426 332.253 98.2975 332.253 97.4072C332.26 97.0263 332.165 96.6505 331.976 96.3196C331.787 95.9887 331.513 95.715 331.181 95.5276C328.23 90.9606 326.713 85.0581 326.713 77.7213C326.713 70.3844 326.614 66.4604 326.614 65.8339C326.447 54.247 327.681 42.6824 330.291 31.3919C331.626 25.8521 333.588 18.9604 336.012 10.8322C336.768 8.50701 337.276 6.10856 337.529 3.67668C337.446 2.02795 336.193 0.80788 333.77 0.181362C333.122 0.0667181 332.465 0.00605524 331.808 0C330.456 0.098924 329.384 1.4344 328.51 4.02291L324.487 17.526C323.675 20.6327 322.678 23.6883 321.503 26.6765C320.514 28.9023 318.205 30.0729 314.908 30.0729C313.252 30.082 311.625 30.5138 310.183 31.3274C308.74 32.1411 307.529 33.3096 306.664 34.7223C300.023 44.3077 296.395 55.6575 296.244 67.3178C296.2 70.0266 296.499 72.73 297.135 75.3636C298.206 79.6668 300.712 81.8101 304.752 81.8101C307.522 81.8101 309.846 79.2216 311.726 73.9457C312.699 71.2582 314.941 64.2841 318.601 53.0068C319.228 51.1272 319.689 50.1545 319.854 50.1545C320.019 50.1545 320.036 50.3193 320.036 50.6821C319.772 53.0068 319.59 59.3544 319.59 69.7414C319.367 76.8 320.337 83.8456 322.459 90.5814C324.421 96.0387 326.565 98.8251 328.807 98.8251L328.856 98.8416ZM304.521 72.9894C303.993 72.9894 303.713 72.6267 303.713 71.9177V69.8733C303.713 56.3702 307.39 45.4556 314.809 37.3108C315.798 36.3381 316.458 35.794 316.87 35.794C317.282 35.794 317.398 36.1567 317.398 36.8657C317.398 38.4814 316.057 42.8781 313.375 50.0555C310.605 57.2935 308.643 62.9321 307.291 66.955C305.939 70.978 305.065 73.0389 304.521 73.0389V72.9894ZM291.331 73.6654C292.848 73.6654 293.557 73.2202 293.557 72.4124C293.54 71.9995 293.421 71.5972 293.211 71.2418C292.214 69.022 291.692 66.6185 291.677 64.1852C291.764 60.2861 292.318 56.4115 293.326 52.644C293.598 51.5651 293.747 50.459 293.771 49.3466C293.892 48.3436 293.72 47.327 293.275 46.4199C292.83 45.5128 292.132 44.7541 291.265 44.2355C290.89 44.127 290.502 44.0715 290.111 44.0706C289.552 44.0871 288.998 44.1758 288.462 44.3344C287.292 44.6972 283.978 48.2749 278.57 54.9688C274.366 60.2612 271.777 62.9321 270.87 62.9321C270.689 62.9321 270.607 62.7508 270.607 62.487C270.686 61.8354 270.87 61.2009 271.151 60.6074C273.018 55.105 275.601 49.8721 278.834 45.0434C279.46 44.2355 279.905 43.7904 280.268 43.7904C280.708 43.9163 281.129 44.0992 281.521 44.3344C282.127 44.6473 282.802 44.8005 283.483 44.7796C284.291 44.7796 285 44.1531 285.627 42.9C285.898 42.3946 286.023 41.8239 285.989 41.2513C285.989 40.5424 285.363 39.6026 284.11 38.6628C282.916 37.7129 281.431 37.206 279.905 37.2284C277.399 37.2284 274.987 38.7507 272.667 41.7954C267.532 48.3664 263.937 56.0065 262.149 64.1522C261.977 64.8817 261.888 65.6285 261.885 66.378C261.834 67.6626 262.152 68.9348 262.8 70.0449C263.449 71.1549 264.401 72.0564 265.545 72.6432C266.609 73.2601 267.811 73.6002 269.04 73.6324C269.939 73.5473 270.809 73.2726 271.593 72.8264C272.378 72.3802 273.058 71.7726 273.591 71.0439C275.108 69.3952 276.641 67.4661 278.24 65.4052C281.109 61.7286 282.543 59.9479 282.626 59.9479C283.071 59.9479 283.252 60.9372 283.252 62.8992C283.252 68.4389 285.577 71.9342 290.325 73.4511C290.735 73.5601 291.155 73.6209 291.578 73.6324L291.331 73.6654ZM256.955 85.9814C258.752 85.8825 259.642 84.7284 259.642 82.4861C259.63 81.6206 259.57 80.7564 259.461 79.8976C259.189 78.208 259.068 76.4976 259.098 74.7865C259.098 67.7299 260.747 56.8978 263.847 42.323C264.617 39.2142 265.098 36.0404 265.281 32.8428C265.288 32.0377 265 31.2579 264.472 30.6505C263.943 30.043 263.211 29.6499 262.412 29.5453C261.777 29.3494 261.114 29.2602 260.45 29.2815C258.802 29.2815 257.4 30.7159 256.147 33.4033C253.295 39.5696 250.344 45.2907 247.392 50.5666C245.513 53.963 244.342 55.6612 243.897 55.7602C243.897 55.7602 243.897 55.5788 243.897 55.2161C243.897 53.6992 245.315 49.2312 248.101 41.6305C248.376 40.8511 248.527 40.0331 248.547 39.2069C248.575 38.6448 248.433 38.0872 248.139 37.6075C247.844 37.1278 247.412 36.7485 246.898 36.5194C245.987 36.0344 244.978 35.7637 243.947 35.728C243.076 35.7784 242.237 36.0725 241.526 36.5769C240.814 37.0813 240.259 37.7755 239.924 38.5804C237.681 42.7846 234.648 47.8792 230.971 53.7982C227.294 59.7171 224.904 62.6519 223.816 62.7343C223.552 62.7343 223.37 62.5529 223.288 62.1902C226.585 47.3516 228.234 39.751 228.234 39.3058C228.17 38.5094 227.846 37.756 227.313 37.1606C226.78 36.5652 226.067 36.1605 225.283 36.0083C224.675 35.8204 224.04 35.7314 223.403 35.7445C222.776 35.7316 222.163 35.9388 221.672 36.3304C221.181 36.7219 220.843 37.2729 220.716 37.8879L219.826 41.1854C215.704 57.3759 213.643 68.4719 213.643 74.2754L213.742 75.6274C214.632 78.9249 215.803 80.5736 217.319 80.722C218.836 80.8704 219.727 80.9033 220.007 80.9033C221.144 80.7757 222.228 80.3545 223.153 79.6809C224.078 79.0074 224.812 78.1048 225.283 77.0618C225.81 76.0725 226.932 73.6489 228.861 69.7249C230.823 65.5207 232.076 63.4597 232.702 63.3773C232.966 63.3773 233.065 63.7235 233.065 64.35C233.001 66.3354 232.759 68.3109 232.339 70.2525C232.186 70.8681 232.098 71.4981 232.076 72.1321C232.076 74.3743 233.724 75.8912 237.17 76.6001C237.88 76.6967 238.598 76.7298 239.314 76.6991C241.193 76.6001 242.611 75.1822 243.798 72.231C247.64 62.6519 250.393 57.7386 251.926 57.6397C252.108 57.6397 252.207 58.0024 252.289 58.8103C252.283 59.7123 252.195 60.6118 252.025 61.4977C251.305 65.816 250.886 70.1792 250.772 74.5557C250.824 77.0634 251.184 79.5553 251.844 81.975C251.978 82.6469 252.245 83.285 252.63 83.8514C253.015 84.4179 253.511 84.9012 254.086 85.2725C254.941 85.8189 255.925 86.1316 256.939 86.1793" fill="white"/>
</svg>
