<svg width="270" height="47" viewBox="0 0 270 47" fill="none" xmlns="http://www.w3.org/2000/svg">
<path d="M49.7635 17.661C49.5982 17.7061 49.2074 17.8188 48.9519 17.8488C49.4404 17.3754 49.7335 16.7892 49.7335 16.3082C49.5005 16.3834 49.0797 16.5412 48.6964 16.6238C49.4554 15.9775 49.8688 15.2335 49.6884 14.234C49.4554 14.3542 49.1323 14.5421 48.8016 14.6774C49.4629 13.6553 49.4554 12.7535 49.1849 12.2274C48.8918 12.5054 48.531 12.8286 48.1478 13.0616C48.3882 11.8817 48.3807 11.1226 47.8847 10.589C47.3812 11.536 46.9453 12.2499 46.2389 13.0916C46.2915 12.3101 46.2088 11.3406 45.6978 10.8295C45.6978 10.8295 45.555 11.9193 45.1717 12.265C45.0815 11.1978 44.7508 10.6191 44.2623 10.0479C44.2623 10.0479 44.2323 11.1602 43.9317 11.8441C43.6761 10.9197 43.1952 10.1982 42.5864 9.50684C42.6315 11.5585 42.0603 15.4214 40.4145 18.0142C40.2191 19.5548 40.0537 21.8695 37.5436 23.2373C37.1829 22.9818 36.5441 22.6587 35.6498 22.7113C35.4168 21.5464 36.9349 20.4942 38.2426 19.645C39.5653 18.7883 40.1439 18.0593 40.1139 16.9245C40.0838 15.6769 39.2346 15.1659 38.3628 15.1283C37.1303 15.0757 36.1232 16.1955 35.8903 16.6539C35.537 16.8268 34.4774 17.1499 34.0415 17.2702C33.5605 17.3979 33.0194 17.5933 32.6812 17.8864C32.8841 18.0142 33.4628 18.0593 33.6883 18.0217C34.1091 17.9616 35.4393 17.7136 36.7169 17.5633C37.1829 17.8113 37.9344 18.2321 37.1378 18.7883C36.0556 19.4872 35.5896 19.66 34.0565 20.4642C31.6366 21.7343 32.4182 24.9208 33.0119 25.1537C33.0119 26.2284 33.9738 28.1749 34.6277 28.8513C34.9208 30.204 34.53 32.2181 34.1242 33.0523C33.786 32.2332 33.2073 30.3318 32.824 29.2195C33.2148 27.1228 32.5835 26.1984 32.1401 25.8376C31.6967 25.4769 30.9978 25.5746 30.5469 26.3036C31.2458 26.2284 31.4788 27.1228 31.4637 28.0471C31.4487 29.1594 31.1631 30.0462 30.389 30.0537C30.4492 31.0007 31.4712 31.2712 31.9823 30.8128C32.065 31.0232 32.4783 32.2708 32.8616 33.383C33.0946 34.0444 33.3125 34.6456 33.4628 34.9612C33.6206 35.3145 34.8005 35.3671 34.9433 34.9612C35.1312 34.4201 35.274 34.0143 35.5671 33.383C35.7926 32.902 36.1007 32.2933 36.5742 31.3839C36.8898 31.9326 37.3107 32.7968 37.5587 33.383C37.6714 33.6536 37.7541 33.8715 37.7616 33.9692C37.8593 34.8711 37.8067 38.0876 37.5587 40.0115C34.9208 39.2901 34.1692 40.5827 34.4022 41.5371C34.778 41.1163 35.274 41.1689 35.5821 41.3944C35.507 42.1008 35.6949 42.6043 36.4163 42.8223C37.1754 40.8157 39.8959 41.2591 40.1514 41.4319C40.1665 41.0411 40.5272 40.0717 39.1294 39.8687C39.182 38.1402 39.3623 36.0134 39.4225 35.57C39.4901 35.1266 39.5352 34.8485 39.3248 34.1571C39.2646 33.9467 39.1895 33.6911 39.1068 33.3905C38.9264 32.6916 38.7386 31.7747 38.7235 30.7827C38.9715 31.0232 39.5502 31.2186 39.9485 31.1284C40.2567 32.4361 40.7001 32.0603 40.933 32.6089C41.0533 32.8945 41.0758 33.1576 41.1134 33.3905C41.1435 33.6235 41.181 33.8189 41.3088 33.9918C42.2407 34.0218 43.0373 33.7964 43.6085 33.3905C43.7814 33.2703 43.9392 33.1275 44.0669 32.9772C43.834 31.5869 43.4432 30.8954 42.7142 30.0537C42.5263 28.9114 41.9927 27.8668 41.2562 26.9424C42.1806 26.6418 43.1125 25.8902 43.601 25.3717C44.0444 25.3416 44.5479 24.9734 44.5855 24.2519C44.841 24.2218 45.059 24.2068 45.2619 24.1692C45.2393 23.9738 45.1867 23.6732 45.1567 23.4929C45.4948 23.4929 45.818 23.4778 46.1336 23.4478C46.0435 23.1847 45.9232 22.9142 45.8255 22.7113C46.1637 22.7113 46.5846 22.6887 46.9228 22.6662C46.7424 22.328 46.6071 22.0349 46.5019 21.7343C46.8927 21.6967 47.4939 21.599 47.9899 21.4787C47.8321 21.3134 47.6517 21.1406 47.3812 20.8775C48.6663 20.5018 49.23 19.5999 49.2901 19.2091C49.1022 19.2091 48.7114 19.2918 48.4784 19.2768C49.1999 18.8559 49.6809 18.2772 49.7635 17.661Z" fill="black" fill-opacity="0.6"/>
<path d="M31.7568 20.5471H15.4937V26.5517C15.5688 26.5968 15.6364 26.6494 15.7116 26.717V20.8026H31.892V26.3037C31.9522 26.3638 32.0048 26.439 32.0574 26.5367V20.5471H31.7568Z" fill="black" fill-opacity="0.6"/>
<path d="M23.753 41.2518C16.5759 38.5763 15.6665 32.6918 15.6364 30.0239L15.6139 30.0164L15.6364 29.821C15.6364 29.2423 15.6815 28.8515 15.7041 28.7087C15.6815 28.3254 15.6289 28.0248 15.5613 27.8069L15.4937 27.6641V30.4372C15.4937 33.5411 16.6285 36.2165 18.8755 38.3885C20.837 40.2898 23.0466 41.1767 23.6778 41.4021L23.7755 41.4397L23.8808 41.4021C24.512 41.1767 26.7215 40.2898 28.683 38.3885C30.9226 36.2165 32.0649 33.5411 32.0649 30.4372V29.9337C32.0048 30.0239 31.9522 30.084 31.8921 30.1516C31.8245 31.542 31.5689 33.7064 30.6445 35.3372C29.5248 37.6144 27.8188 39.4932 23.753 41.2518Z" fill="black" fill-opacity="0.6"/>
<path d="M10.8642 4.3135C11.8863 4.80951 12.217 3.89263 14.1259 5.12516C12.8633 5.52347 11.8863 7.09419 10.4584 6.68836C11.4805 6.17731 11.3753 5.43329 11.969 5.05752C11.5932 5.01243 10.8492 4.83957 10.8642 4.3135ZM14.5392 14.4818C13.9305 14.2338 12.9835 14.0685 12.4575 14.8125C12.1719 14.3165 12.5927 13.5649 12.8633 13.347C11.5181 13.3695 10.759 12.9637 10.5636 12.5504C11.0596 12.2798 12.3147 11.8214 13.3368 12.5729C14.0432 13.0915 14.4039 13.3395 15.2381 13.6176C15.5387 13.3169 15.426 13.4522 15.5237 13.362C14.8398 12.8886 14.5317 9.23608 13.1864 9.09329C13.3818 8.63485 14.0733 8.67242 14.6369 8.82273C14.6745 8.00355 14.3363 6.6583 13.8328 5.8767C14.6144 5.46335 15.1479 5.91427 15.426 6.88376C15.7116 7.91337 15.3734 10.4911 16.0498 12.8209L16.4706 12.4301C16.2602 11.0774 17.7482 10.5738 18.0714 9.90495C18.1992 10.8143 18.0113 11.2201 17.7558 11.5508C18.2969 11.6109 18.5373 12.1445 18.4547 12.5128C17.1545 12.3249 16.403 13.6251 16.6961 14.6547C15.7266 14.8576 15.0653 14.6998 14.5392 14.4818ZM20.8821 15.2334C19.7623 15.2935 18.6651 16.7515 19.1311 18.4124C18.9657 18.4725 18.4772 18.465 18.3194 18.1268C18.1992 18.6679 17.1019 19.2842 16.3053 19.2015C16.7487 18.728 17.0493 17.6458 17.9061 17.0821C18.7703 16.511 19.1611 16.1202 19.4692 15.1507C19.0709 15.3386 16.9742 15.8797 16.388 15.2334C17.7633 15.0304 19.3866 14.2564 20.1907 13.7528L19.8751 13.4146C19.0108 13.9031 17.861 14.3015 17.2748 14.4818C17.0643 12.7608 18.7027 12.8284 18.8304 13.2944C19.5068 12.4902 19.0334 11.3404 18.5298 11.2126C19.0409 9.83731 18.5298 8.99559 18.0939 8.49205C17.9887 9.95004 16.3654 10.183 16.17 11.3028C16.1099 10.416 16.0498 8.01107 15.9821 6.84618C15.8544 4.67424 13.1113 3.90767 12.6904 3.90767C10.8943 3.99033 10.7289 3.75736 10.774 2.93066C9.86468 3.96779 10.1728 4.88467 10.9469 5.32807C10.8417 5.95185 9.84214 6.43284 9.2334 6.56811C10.6914 7.92088 12.3823 7.11674 13.194 6.35017L13.3668 6.19234C13.6599 6.71091 13.8703 7.65033 13.8703 8.18392C12.5101 8.10877 12.2621 9.16844 12.2621 9.54421C13.9906 8.82273 14.186 12.1445 14.6369 12.6781C14.1935 12.6481 13.4119 11.6185 12.2621 11.5508C10.8717 11.4606 10.3832 12.2047 9.81959 12.1746C9.92481 13.1591 11.1197 13.7077 11.8863 13.8205C11.4955 14.82 11.8412 15.5039 12.6529 15.7519C12.6529 14.835 13.8102 14.5495 15.0578 15.2785C16.5533 16.1502 17.3199 16.2254 18.5223 15.8571C18.3269 16.293 17.7858 16.3381 17.117 16.9844C16.1851 17.9013 16.155 19.0963 15.1179 19.5322C16.3354 20.1109 18.1691 19.2992 18.4321 18.8332C18.9432 19.1489 19.597 18.961 19.7699 18.6454C18.9432 16.8191 20.341 15.7294 20.8896 15.7519C20.9047 15.7594 21.1452 15.2108 20.8821 15.2334Z" fill="black" fill-opacity="0.6"/>
<path d="M33.5229 5.30593C34.1391 4.86253 34.5224 4.67465 34.8456 4.47926C35.3716 4.5018 36.281 4.43416 36.8296 4.16361C36.2585 4.86253 36.1983 5.11805 35.2664 5.21575C36.4689 5.32097 36.9799 6.40316 37.5736 6.5685C35.5595 7.18475 35.3566 5.18569 33.5229 5.30593ZM36.0029 11.3181C36.6042 11.8142 36.4088 12.5131 36.266 12.6709C35.7399 11.7615 34.0489 12.0772 32.388 13.9485C32.2753 14.0913 32.1175 14.2491 31.9296 14.4144C32.0574 12.1749 30.2311 12.1373 29.69 12.3628C29.7501 11.7165 30.1485 11.2731 30.3664 11.2129C29.8253 10.5892 29.7126 9.80006 29.6449 9.2289C30.5393 9.6197 31.8695 10.6643 32.0949 12.4755L32.6736 12.0847C32.5008 8.92829 32.5383 8.94332 32.5158 6.79396C32.5158 6.49335 32.5308 5.79443 33.4778 5.86958C33.5153 6.6662 33.6431 8.7855 33.598 11.724H33.9362C34.2443 10.9048 35.3265 9.93534 36.5966 10.0255C37.4609 10.0856 37.7615 10.0631 38.2575 9.84516C37.8592 10.8146 36.3862 11.2505 36.0029 11.3181ZM34.1767 10.2134C34.1767 8.17677 34.1015 6.50086 34.079 5.97479L34.327 6.04995C35.785 6.56098 36.1232 8.31956 39.1368 6.32801C37.521 6.51589 37.4384 5.14811 36.7019 5.11805C37.8217 4.48677 37.8968 3.02881 37.8968 3.02881C36.9574 3.78785 34.7854 3.83294 34.3571 4.08095C33.7934 4.41913 33.087 4.83247 32.606 5.09551C31.3509 5.7794 32.2227 9.49945 32.1025 10.8597C31.4261 8.8306 30.0583 9.13872 29.3368 7.98137C28.7957 8.95084 29.3669 10.5741 29.5923 11.0401C28.8107 11.6714 29.0212 12.8437 29.209 13.1594C29.8779 12.6784 30.9075 12.8062 31.2232 13.6028C30.3439 14.1364 28.8784 14.2341 27.8788 13.2646L27.5181 13.6629C28.2245 14.5948 29.9982 14.9631 31.3133 14.204C31.3058 14.4144 31.2607 14.6549 31.1706 14.918C30.4867 15.2787 29.5998 15.4741 28.5928 15.1284C28.7281 16.1505 29.9005 16.9095 31.0202 17.2176C30.6445 17.5107 30.1785 17.631 29.8403 17.5859C30.0508 18.1721 30.171 18.9687 29.7276 19.5925C29.1715 19.2242 28.8708 18.856 28.6604 17.4205C28.4425 15.9851 27.4129 14.5272 26.6087 14.2266C26.5636 14.7376 26.5636 14.5121 26.6538 14.8428C28.7882 16.406 27.5782 19.2242 29.7952 20.2388C30.6069 19.3144 30.6219 18.9837 30.4942 18.1119C31.2983 17.9015 31.892 17.2251 32.11 16.7066C31.3509 17.0673 30.1485 16.436 29.8103 15.94C31.133 15.8949 32.3505 14.9029 33.598 13.5953C34.7178 12.4229 36.2058 12.6033 36.0931 13.5201C36.8672 13.4074 37.1678 12.3477 36.9123 11.6714C38.0471 11.3181 38.9339 10.4764 39.0542 9.16878C37.5361 9.92782 35.6121 8.67277 34.1767 10.2134Z" fill="black" fill-opacity="0.6"/>
<path d="M25.9624 17.1499C25.8572 17.1499 25.767 17.2026 25.7069 17.2777L25.3462 17.2251L25.3537 16.5712C25.4739 16.5186 25.5491 16.4059 25.5491 16.2706C25.5491 16.0903 25.4063 15.9399 25.2259 15.9399C25.0456 15.9399 24.9028 16.0903 24.9028 16.2706C24.9028 16.3984 24.9704 16.5036 25.0681 16.5562L25.0606 17.1875L24.7149 17.1575C24.6698 17.0372 24.5495 16.9621 24.4218 16.9621C24.2414 16.9621 24.0986 17.1048 24.0986 17.2852C24.0986 17.4656 24.2414 17.6084 24.4218 17.6084C24.5345 17.6084 24.6397 17.5483 24.6923 17.4581L25.0606 17.4957L25.0531 18.4501C24.9479 18.5027 24.8802 18.6155 24.8802 18.7357C24.8802 18.9161 25.023 19.0664 25.2034 19.0664C25.3837 19.0664 25.534 18.9161 25.534 18.7357C25.534 18.608 25.4514 18.4877 25.3387 18.4426L25.3462 17.5332L25.6543 17.5783C25.6994 17.7061 25.8196 17.7963 25.9624 17.7963C26.1428 17.7963 26.2931 17.6535 26.2931 17.4731C26.2856 17.3003 26.1428 17.1499 25.9624 17.1499Z" fill="black" fill-opacity="0.6"/>
<path d="M23.1292 16.9621C22.9939 16.9621 22.8812 17.0372 22.8286 17.1575L22.4904 17.1875L22.4829 16.5562C22.5806 16.5036 22.6557 16.3909 22.6557 16.2706C22.6557 16.0903 22.5054 15.9399 22.3325 15.9399C22.1522 15.9399 22.0019 16.0903 22.0019 16.2706C22.0019 16.4059 22.0845 16.5186 22.1973 16.5713L22.2048 17.2251L21.8441 17.2777C21.7839 17.2026 21.6938 17.15 21.5885 17.15C21.4082 17.15 21.2654 17.2928 21.2654 17.4807C21.2654 17.661 21.4082 17.8038 21.5885 17.8038C21.7313 17.8038 21.8516 17.7136 21.8967 17.5859L22.2048 17.5408L22.2123 18.4502C22.0996 18.5028 22.0244 18.6155 22.0244 18.7433C22.0244 18.9237 22.1672 19.074 22.3476 19.074C22.5279 19.074 22.6783 18.9237 22.6783 18.7433C22.6783 18.6155 22.6031 18.5103 22.4979 18.4577L22.4904 17.5032L22.8511 17.4656C22.9112 17.5558 23.0089 17.6159 23.1292 17.6159C23.3095 17.6159 23.4598 17.4656 23.4598 17.2928C23.4598 17.1124 23.3095 16.9621 23.1292 16.9621Z" fill="black" fill-opacity="0.6"/>
<path d="M23.7755 19.7276C23.287 20.6594 22.3851 20.6294 21.596 20.1108C21.2804 19.9004 20.9572 19.7651 20.6566 19.7201C20.7919 18.8032 21.0173 17.0822 21.1827 15.6243C22.2048 15.1659 23.4598 15.0532 23.7755 16.233C24.0836 15.0532 25.3462 15.1659 26.3607 15.6243C26.5261 17.0822 26.7515 18.8032 26.8868 19.7201C26.5937 19.7651 26.263 19.9079 25.9474 20.1108C25.1658 20.6294 24.2564 20.6594 23.7755 19.7276ZM27.4655 19.7576C27.2701 18.4425 26.7966 14.7601 26.7365 13.5276L26.1728 13.5501C26.1804 13.7606 26.2029 14.0386 26.233 14.3618C25.5566 14.1589 24.6773 14.0236 23.7755 14.0236C22.8736 14.0236 21.9868 14.1589 21.3179 14.3618C21.348 14.0386 21.3706 13.7606 21.3781 13.5501L20.8144 13.5276C20.7618 14.7601 20.2883 18.4425 20.0854 19.7576C19.7472 19.8854 19.5293 20.2236 19.5293 20.8248C19.5293 20.8248 22.588 20.8699 23.7755 20.8699C24.9629 20.8699 28.0141 20.8248 28.0141 20.8248C28.0216 20.2236 27.7962 19.8929 27.4655 19.7576Z" fill="black" fill-opacity="0.6"/>
<path d="M40.2942 46.0387H7.2568C7.1065 44.9865 6.9111 44.3102 6.73073 43.7465H40.8128C40.6399 44.3102 40.437 44.9865 40.2942 46.0387ZM17.906 38.9668C18.2142 39.4177 18.4997 39.7484 18.6425 40.1091C18.7853 40.4849 18.6951 40.7179 18.4171 41.1012C17.7933 41.9804 16.7036 42.732 15.8468 43.1979H12.5401C14.6143 42.6117 17.425 40.8306 17.906 38.9668ZM15.8994 38.3506C16.17 37.8471 16.8238 37.6892 17.2747 38.2829C17.4626 38.5385 17.38 39.2148 16.5984 40.0641C16.0272 39.553 15.6063 38.8917 15.8994 38.3506ZM29.0964 41.1012C28.8183 40.7104 28.7281 40.4849 28.8709 40.1091C29.0137 39.7484 29.2993 39.4177 29.6074 38.9668C30.0884 40.8306 32.8991 42.6117 34.9809 43.2054H31.6666C30.8099 42.732 29.7276 41.9804 29.0964 41.1012ZM30.2387 38.2904C30.6896 37.6967 31.3434 37.8546 31.614 38.3581C31.8996 38.8917 31.4862 39.553 30.9151 40.0716C30.1335 39.2223 30.0508 38.546 30.2387 38.2904ZM40.948 43.0326C40.5948 43.1378 40.1664 43.1979 39.5201 43.1979H38.7235C35.9804 43.1453 33.1471 42.3261 31.4186 40.5525C33.8085 38.1401 30.9977 36.1561 29.4796 38.2003C29.0062 38.8391 28.6304 39.2975 28.2997 39.9137C28.0367 40.4173 28.2321 40.9133 28.8258 41.6873C29.149 42.1082 29.9606 42.7695 30.622 43.1979H16.8915C17.5528 42.7695 18.3569 42.1157 18.6876 41.6873C19.2738 40.9208 19.4842 40.4173 19.2137 39.9137C18.883 39.29 18.4997 38.8391 18.0263 38.2003C16.5082 36.1561 13.6974 38.1401 16.0873 40.5525C14.3588 42.3261 11.533 43.1453 8.78242 43.1979H8.02337C7.37705 43.1979 6.94868 43.1303 6.59545 43.0326C6.02429 42.8973 5.89653 43.1378 6.20466 44.1223C6.41509 44.7761 6.58042 45.8433 6.65558 46.5723H40.8879C40.9631 45.8358 41.1284 44.7686 41.3388 44.1223C41.6395 43.1378 41.5192 42.8973 40.948 43.0326Z" fill="black" fill-opacity="0.6"/>
<path d="M11.2099 45.1896L11.2024 45.1745L11.4504 44.5207L11.4654 44.5057L11.4729 44.5207L11.7134 45.1745L11.7059 45.1896H11.2099ZM11.7359 45.2873L11.7585 45.3023L11.8487 45.5428L11.8336 45.5879L11.8036 45.6029L11.8637 45.6179H12.232L12.3221 45.6029L12.2996 45.5879L12.2169 45.5803C12.1718 45.5653 12.1192 45.5428 12.0441 45.3699C11.9163 45.0693 11.6007 44.2727 11.5631 44.1675L11.5105 44.1074L11.4579 44.1901L10.9694 45.415C10.9318 45.5127 10.8942 45.5803 10.8041 45.5879H10.7364L10.7139 45.6029L10.7514 45.6179H10.9844H11.1948L11.2249 45.6029L11.1948 45.5879H11.1648C11.1047 45.5879 11.0896 45.5653 11.0896 45.5277L11.1197 45.415L11.1573 45.3023L11.1723 45.2873H11.7359Z" fill="black" fill-opacity="0.6"/>
<path d="M12.7129 45.0018C12.7129 45.2874 12.7881 45.4302 12.8858 45.5205C13.0286 45.6482 13.2164 45.6558 13.3217 45.6558C13.4494 45.6558 13.5922 45.6407 13.7275 45.5129C13.8928 45.3776 13.9154 45.1446 13.9154 44.9266V44.7161V44.3027C13.9229 44.235 13.9304 44.1974 13.983 44.1899L14.0431 44.1824L14.0807 44.1674L14.0431 44.1523H13.8177H13.5997L13.5546 44.1674L13.5922 44.1824L13.6598 44.1899C13.7275 44.205 13.7425 44.235 13.7425 44.3027V44.7161V44.9642C13.7425 45.1671 13.735 45.34 13.6298 45.4528C13.5471 45.528 13.4419 45.558 13.3592 45.558C13.2916 45.558 13.2014 45.543 13.1112 45.4754C13.0135 45.3927 12.9609 45.2799 12.9609 44.9943V44.7161V44.3027C12.9684 44.235 12.9835 44.1974 13.0361 44.1899L13.0962 44.1824L13.1263 44.1674L13.0812 44.1523H12.8407H12.5551L12.51 44.1674L12.5476 44.1824L12.6227 44.1899C12.6904 44.205 12.7054 44.235 12.7054 44.3027L12.7129 44.7161V45.0018Z" fill="black" fill-opacity="0.6"/>
<path d="M14.9901 44.6786V44.2879L15.0126 44.2503L15.1404 44.2353C15.2982 44.2353 15.5161 44.2578 15.6965 44.4307C15.7792 44.5133 15.8844 44.6711 15.8844 44.9191C15.8844 45.122 15.8468 45.3023 15.719 45.4075C15.5988 45.5052 15.471 45.5503 15.2681 45.5503C15.1103 45.5503 15.0352 45.5052 15.0126 45.4751L14.9901 45.3248V44.9266V44.6786ZM14.7421 45.0543C14.7421 45.2347 14.7421 45.3925 14.7346 45.4751C14.727 45.5352 14.7195 45.5728 14.682 45.5878L14.6143 45.5954L14.5843 45.6104L14.6218 45.6254H14.8698L15.2907 45.6479C15.6514 45.6479 15.8543 45.5127 15.9445 45.415C16.0572 45.3023 16.1549 45.1144 16.1549 44.874C16.1549 44.6411 16.0647 44.4757 15.967 44.3781C15.7566 44.1602 15.4259 44.1602 15.1855 44.1602H14.8849H14.5993L14.5542 44.1752L14.5843 44.1902L14.6669 44.1977C14.727 44.2128 14.7421 44.2428 14.7496 44.3104L14.7571 44.7237L14.7421 45.0543Z" fill="black" fill-opacity="0.6"/>
<path d="M16.9065 45.1896L16.899 45.1745L17.1395 44.5207L17.147 44.5057L17.1546 44.5207L17.395 45.1745L17.3875 45.1896C17.395 45.1896 16.9065 45.1896 16.9065 45.1896ZM17.4326 45.2873L17.4477 45.3023L17.5378 45.5428L17.5153 45.5879L17.4852 45.6029L17.5454 45.6179H17.9136L18.0038 45.6029L17.9737 45.5879L17.8911 45.5803C17.846 45.5653 17.7934 45.5428 17.7257 45.3699C17.598 45.0693 17.2823 44.2727 17.2372 44.1675L17.1921 44.1074L17.1395 44.1901L16.6435 45.415C16.6059 45.5127 16.5684 45.5803 16.4782 45.5879H16.4181L16.3955 45.6029L16.4331 45.6179H16.6661H16.869L16.899 45.6029L16.869 45.5879H16.8389C16.7788 45.5879 16.7638 45.5653 16.7638 45.5277L16.7938 45.415L16.8389 45.3023L16.8615 45.2873H17.4326Z" fill="black" fill-opacity="0.6"/>
<path d="M19.3489 44.3478C19.4091 44.2576 19.4466 44.205 19.4917 44.1899L19.5594 44.1824L19.5894 44.1674L19.5518 44.1523H19.3565H19.1611L19.1235 44.1674L19.146 44.1824L19.2137 44.1899L19.2437 44.22L19.2212 44.2952L18.9506 44.7086L18.7026 44.2726L18.6801 44.22L18.7026 44.1899L18.7553 44.1824L18.7853 44.1674L18.7477 44.1523H18.5373H18.2367L18.1991 44.1674L18.2142 44.1899L18.2968 44.205C18.3645 44.2275 18.4096 44.2726 18.4547 44.3478L18.7928 44.904L18.4171 45.4377C18.3494 45.5354 18.3119 45.573 18.2593 45.588L18.1841 45.5955L18.1541 45.6106L18.1841 45.6256H18.2217H18.387H18.5749H18.6125L18.65 45.6106L18.6275 45.5955H18.5824L18.5448 45.5655L18.5749 45.4828L18.868 45.0167L19.1761 45.5504L19.1686 45.5955L19.1385 45.6181L19.2062 45.6406H19.5518H19.612L19.6495 45.6256L19.627 45.6106L19.5518 45.603C19.4992 45.588 19.4692 45.5655 19.4391 45.5204C19.394 45.4602 19.0709 44.9266 19.0108 44.8364L19.3489 44.3478Z" fill="black" fill-opacity="0.6"/>
<path d="M22.0169 45.1896L22.0094 45.1745L22.2499 44.5207L22.2649 44.5057L22.2724 44.5207L22.5205 45.1745L22.5129 45.1896H22.0169ZM22.543 45.2873L22.558 45.3023L22.6482 45.5428L22.6332 45.5879L22.6031 45.6029L22.6633 45.6179H23.0315L23.1217 45.6029L23.0992 45.5879L23.0165 45.5803C22.9789 45.5653 22.9188 45.5428 22.8436 45.3699C22.7159 45.0693 22.4077 44.2727 22.3626 44.1675L22.31 44.1074L22.2574 44.1901L21.7689 45.415C21.7313 45.5127 21.6937 45.5803 21.6035 45.5879H21.5434L21.5209 45.6029L21.5585 45.6179H21.7914H21.9944L22.0244 45.6029L21.9944 45.5879H21.9643C21.9042 45.5879 21.8891 45.5653 21.8891 45.5277L21.9192 45.415L21.9568 45.3023L21.9718 45.2873H22.543Z" fill="black" fill-opacity="0.6"/>
<path d="M23.7455 45.0541C23.7455 45.2344 23.7455 45.3921 23.738 45.4748C23.7305 45.5349 23.723 45.5724 23.6854 45.5874L23.6177 45.595L23.5877 45.61L23.6253 45.625H23.8733H24.1814L24.2115 45.61L24.1814 45.595L24.0837 45.5874C24.0236 45.5799 24.0085 45.5349 24.0085 45.4823C24.001 45.3996 24.001 45.2419 24.001 45.0616V44.2654L24.249 44.2729C24.4219 44.2804 24.4745 44.333 24.482 44.3856V44.4081L24.5046 44.4457L24.5196 44.4156L24.5271 44.1903L24.5121 44.1527L24.3242 44.1677H23.5501L23.3547 44.1602L23.272 44.1377L23.2495 44.1753L23.2119 44.4006L23.2269 44.4306L23.2495 44.4081L23.2796 44.333C23.3096 44.2879 23.3547 44.2804 23.4674 44.2804L23.7605 44.2729L23.7455 45.0541Z" fill="black" fill-opacity="0.6"/>
<path d="M27.1498 44.9041L27.1649 44.8891L27.4505 44.8966C27.5106 44.9041 27.5406 44.9417 27.5482 44.9643L27.5557 45.0244L27.5707 45.0469L27.5857 45.0093L27.5933 44.8666L27.6083 44.7463L27.5933 44.7313L27.5707 44.7538L27.4805 44.7839H27.3979H27.1498L27.1348 44.7614V44.2729L27.1574 44.2428L27.458 44.2504C27.5331 44.2504 27.5707 44.2804 27.5857 44.3105L27.5933 44.3856L27.6158 44.4157L27.6383 44.3931L27.6459 44.2353L27.6609 44.1452L27.6459 44.1301L27.6158 44.1452L27.5331 44.1527H27.0146H26.7365L26.6914 44.1677L26.7215 44.1827L26.7966 44.1902C26.8567 44.2053 26.8718 44.2353 26.8793 44.303L26.8868 44.7163V45.0619C26.8868 45.2498 26.8868 45.4001 26.8793 45.4828C26.8718 45.5429 26.8643 45.5805 26.8192 45.5955L26.7515 45.603L26.7215 45.618L26.7666 45.6331H27.0146H27.3152L27.3603 45.618L27.3302 45.603L27.2325 45.5955C27.1724 45.588 27.1574 45.5429 27.1574 45.4828C27.1498 45.4001 27.1498 45.2573 27.1498 45.0619V44.9041Z" fill="black" fill-opacity="0.6"/>
<path d="M28.405 45.0545L28.3975 45.4829C28.3899 45.5355 28.3749 45.5731 28.3373 45.5806L28.2697 45.5881L28.2396 45.6031L28.2772 45.6182H28.5252H28.8334L28.871 45.6031L28.8409 45.5881L28.7357 45.5806C28.6756 45.5731 28.6605 45.5355 28.6605 45.4829L28.653 45.0545V44.7088V44.2955C28.6605 44.2279 28.668 44.1903 28.7282 44.1828L28.7883 44.1753L28.8184 44.1527L28.7733 44.1377H28.5327H28.2847L28.2396 44.1527L28.2697 44.1753L28.3373 44.1828C28.3824 44.1978 28.3975 44.2279 28.405 44.2955V44.7088V45.0545Z" fill="black" fill-opacity="0.6"/>
<path d="M29.8178 44.6786V44.2879L29.8479 44.2503L29.9756 44.2353C30.1334 44.2353 30.3514 44.2578 30.5317 44.4307C30.6144 44.5133 30.7196 44.6711 30.7196 44.9191C30.7196 45.122 30.6821 45.3023 30.5543 45.4075C30.434 45.5052 30.3063 45.5503 30.1034 45.5503C29.9456 45.5503 29.8704 45.5052 29.8479 45.4751L29.8253 45.3248L29.8178 44.9266V44.6786ZM29.5773 45.0543C29.5773 45.2347 29.5773 45.3925 29.5623 45.4751C29.5548 45.5352 29.5472 45.5728 29.5097 45.5878L29.4345 45.5954L29.4044 45.6104L29.4495 45.6254H29.6975L30.1109 45.6479C30.4716 45.6479 30.6745 45.5127 30.7647 45.415C30.8775 45.3023 30.9827 45.1144 30.9827 44.874C30.9827 44.6411 30.8925 44.4757 30.7873 44.3781C30.5768 44.1602 30.2462 44.1602 30.0057 44.1602H29.7051H29.4195L29.3744 44.1752L29.412 44.1902L29.4871 44.1977C29.5472 44.2128 29.5623 44.2428 29.5698 44.3104L29.5773 44.7237V45.0543Z" fill="black" fill-opacity="0.6"/>
<path d="M31.6666 45.0544L31.659 45.4753C31.6515 45.5354 31.644 45.5729 31.5989 45.588L31.5238 45.5955L31.4937 45.6105L31.5313 45.6255H31.7793L32.3204 45.6331C32.3956 45.6331 32.4106 45.6331 32.4256 45.5805L32.4557 45.3625L32.4407 45.325L32.4181 45.355C32.4031 45.4302 32.3805 45.4753 32.3279 45.4978C32.2753 45.5203 32.2002 45.5203 32.1476 45.5203C31.9521 45.5203 31.9146 45.4903 31.9146 45.355V44.8966L31.9296 44.8741L32.2077 44.8816C32.2828 44.8891 32.3054 44.9192 32.3204 44.9568V45.0394L32.3354 45.0544L32.3505 45.0169L32.358 44.8891L32.373 44.7464L32.358 44.7313L32.3279 44.7539L32.2302 44.7839L31.9146 44.7914L31.8995 44.7689V44.273L31.9146 44.2579L32.1926 44.2654C32.2903 44.273 32.3129 44.2955 32.3204 44.3331L32.3354 44.4007L32.3505 44.4308L32.3655 44.4082L32.373 44.2805L32.388 44.1527L32.373 44.1377L32.343 44.1452L32.2603 44.1602H31.7718H31.4937L31.4486 44.1753L31.4787 44.1903L31.5538 44.1978C31.6215 44.2128 31.6365 44.2429 31.6365 44.3105V44.7238L31.6666 45.0544Z" fill="black" fill-opacity="0.6"/>
<path d="M33.4327 44.7161V44.3027C33.4402 44.235 33.4553 44.1974 33.5079 44.1899L33.583 44.1824L33.6131 44.1674L33.5755 44.1523H33.3125H33.0494L33.0118 44.1674L33.0419 44.1824L33.1095 44.1899C33.1697 44.205 33.1847 44.235 33.1922 44.3027L33.1997 44.7161V45.0618C33.1997 45.2422 33.1997 45.4001 33.1922 45.4828C33.1847 45.5429 33.1772 45.5805 33.1321 45.5955L33.0645 45.603L33.0344 45.6181L33.072 45.6331H33.32L33.8912 45.6406C33.9889 45.6406 34.0039 45.6331 34.0114 45.588L34.0415 45.3625L34.0265 45.3324L34.0039 45.3625L33.9513 45.4828C33.9062 45.5354 33.8235 45.5354 33.7183 45.5354C33.568 45.5354 33.5154 45.5204 33.4853 45.4903C33.4478 45.4527 33.4478 45.3174 33.4478 45.0694L33.4327 44.7161Z" fill="black" fill-opacity="0.6"/>
<path d="M34.6502 45.0545L34.6426 45.4829C34.6351 45.5355 34.6201 45.5731 34.5825 45.5806L34.5074 45.5881L34.4773 45.6031L34.5149 45.6182H34.7629H35.0711L35.1086 45.6031L35.0711 45.5881L34.9734 45.5806C34.9132 45.5731 34.8982 45.5355 34.8982 45.4829C34.8907 45.4002 34.8907 45.2424 34.8907 45.0545V44.7088L34.8982 44.2955C34.9057 44.2279 34.9207 44.1903 34.9734 44.1828L35.0335 44.1753L35.0635 44.1527L35.026 44.1377H34.7855H34.5299L34.4848 44.1527L34.5149 44.1753L34.59 44.1828C34.6351 44.1978 34.6502 44.2279 34.6577 44.2955V44.7088V45.0545" fill="black" fill-opacity="0.6"/>
<path d="M35.9954 45.6553C36.1006 45.6553 36.2134 45.6402 36.3111 45.5726C36.4539 45.4825 36.4915 45.3473 36.4915 45.2346C36.4915 45.0543 36.4013 44.9191 36.1683 44.7388L36.1157 44.6937C35.9578 44.5735 35.9127 44.5059 35.9127 44.4158C35.9127 44.2956 36.0029 44.2129 36.1457 44.2129C36.2735 44.2129 36.3261 44.273 36.3562 44.3106C36.4013 44.3632 36.4088 44.4233 36.4088 44.4383L36.4313 44.4684L36.4539 44.4083L36.4614 44.1754L36.4313 44.1529C36.3787 44.1378 36.296 44.1228 36.1683 44.1228C35.8977 44.1228 35.7173 44.2806 35.7173 44.4909C35.7173 44.6486 35.7925 44.7914 36.0029 44.9566L36.0931 45.0243C36.2585 45.152 36.281 45.2421 36.281 45.3398C36.281 45.4374 36.1983 45.5576 36.018 45.5576C35.8977 45.5576 35.785 45.505 35.7399 45.3623L35.7173 45.2646L35.7023 45.2271L35.6798 45.2797L35.6722 45.5351L35.7098 45.6027C35.7925 45.6402 35.8827 45.6553 35.9954 45.6553Z" fill="black" fill-opacity="0.6"/>
<path d="M23.7755 11.4833C22.7534 11.4833 21.5961 11.7238 20.7093 12.1146C20.7243 11.9192 20.7919 11.7463 20.9197 11.596C21.4382 10.9723 22.7835 10.7543 23.7755 10.7543C24.7751 10.7543 26.1203 10.9798 26.6314 11.596C26.7591 11.7463 26.8268 11.9192 26.8418 12.1146C25.955 11.7238 24.8126 11.4833 23.7755 11.4833ZM25.5191 12.9262L25.2034 12.1973C25.6844 12.2874 26.1504 12.4302 26.5487 12.6031L26.7366 13.3546C26.436 13.2344 26.0226 13.0615 25.5191 12.9262ZM22.5205 12.8135L21.9794 12.2799C22.4228 12.1672 22.8962 12.092 23.3547 12.062L23.6778 12.6933C23.257 12.7008 22.8737 12.7459 22.5205 12.8135ZM20.7468 13.3847L20.589 13.4523C20.3711 13.535 20.2208 13.4673 20.1682 13.3621C20.108 13.2494 20.1456 13.0615 20.4162 12.8962L20.5289 12.8361L21.0475 13.2569L20.7468 13.3847ZM23.7755 9.53686L24.512 10.0704C24.1964 10.0404 23.9333 10.0329 23.7755 10.0329C23.6177 10.0329 23.3547 10.0404 23.039 10.0704L23.7755 9.53686ZM22.9338 7.58289C22.6332 6.92906 22.5505 6.07232 23.4749 6.48566L23.5501 7.58289H22.9338ZM23.6402 5.21559L23.7755 5.31328L23.9108 5.21559L24.4444 4.82479L24.1363 5.8619L24.1062 5.86941C24.0536 5.74165 23.9258 5.65147 23.7755 5.65147C23.6252 5.65147 23.505 5.73414 23.4448 5.86941L23.4148 5.8619L23.1067 4.82479L23.6402 5.21559ZM24.4294 9.44667L23.9033 9.06339L23.768 8.9657L23.6327 9.06339L23.1067 9.44667L23.4448 8.34193H24.0837L24.4294 9.44667ZM24.6172 7.58289H24.001L24.0761 6.48566C25.0005 6.07232 24.9179 6.92906 24.6172 7.58289ZM21.5134 7.83841L21.8967 7.31234L21.9944 7.17707L21.8967 7.04179L21.5134 6.51572L22.295 6.75621C22.3401 7.0944 22.4152 7.31986 22.4979 7.53028L21.5134 7.83841ZM25.2636 6.76373L26.0452 6.52324L25.6619 7.04931L25.5642 7.18458L25.6619 7.31986L26.0452 7.84592L25.0606 7.54531C25.1433 7.32737 25.2185 7.10191 25.2636 6.76373ZM30.1185 5.4185C30.1335 5.1254 29.5924 4.89994 29.4571 4.89243C29.2317 4.8774 28.9386 5.35838 28.6455 5.65147C28.3824 4.24612 28.5177 3.6449 28.668 3.02113C29.2617 4.09581 30.0584 4.32879 30.4867 4.27618C29.0588 3.14138 29.3068 2.10427 28.8709 2.04415C28.6229 2.0216 28.4426 2.03663 28.3223 2.03663C27.8188 2.03663 27.7511 3.0061 27.691 3.4495C27.3679 2.84828 27.0447 2.33724 26.4961 1.64584C25.97 0.293095 25.3237 0.631281 24.6699 0.0225458C25.1809 0.796617 24.7675 1.27008 25.9475 1.82621C26.2556 2.1193 26.6163 2.57773 26.8568 2.94598C26.6614 3.20901 26.5261 3.35932 26.3383 3.53968C26.1955 3.75763 26.1203 4.59933 25.6619 5.23062C26.3383 4.93752 26.6013 4.52418 26.8418 4.11836C28.9761 5.72662 27.2401 9.83747 26.7516 10.7393C26.2857 10.4237 25.6844 10.2433 25.1358 10.1456L25.0757 9.96522L24.5721 8.34193H24.8051C25.0682 8.34193 25.1358 8.16156 25.0907 8.01877L26.5637 8.47721L27.2176 8.68012L26.8192 8.1315L26.1353 7.18458L26.8192 6.24517L27.2176 5.68905L26.5637 5.89196L25.241 6.29778C25.1508 5.99717 24.9028 5.85438 24.6323 5.81681L25.0757 4.31376L25.2636 3.66744L24.7225 4.06575L23.7755 4.74212L22.8286 4.05824L22.2875 3.65993L22.4754 4.30624L22.9188 5.80929C22.6557 5.84687 22.4002 5.98966 22.31 6.29027L20.9873 5.88444L20.341 5.68153L20.7393 6.23766L21.4232 7.17707L20.7393 8.12399L20.341 8.6726L20.9873 8.46969L22.4679 8.01126C22.4228 8.15405 22.4754 8.33441 22.7534 8.33441H22.9864L22.4829 9.95771L22.4228 10.1381C21.8591 10.2358 21.2428 10.4237 20.7694 10.7543C19.334 7.96617 19.7323 5.14795 20.9422 4.21606C20.9197 4.80976 21.4382 5.61389 21.6787 5.77923C21.5284 5.17049 21.799 4.08078 21.4833 3.81023C21.2579 3.62235 20.9272 3.52465 20.5665 3.53968C20.807 3.14138 21.1452 2.63034 21.7163 1.87881C22.5656 1.4805 22.806 0.496007 23.0165 0C22.0921 0.338186 21.4232 0.811647 21.2729 1.58572C20.9498 2.0216 20.589 2.52513 20.1832 3.12635C20.2057 2.39737 19.7999 2.14185 19.2738 2.10427C17.7257 2.42743 17.8384 3.5472 16.5082 4.32127C17.4175 4.63691 18.8379 2.64537 19.3264 2.87083C19.4016 4.09581 19.1235 5.05777 19.1235 5.71911C18.8905 5.46359 18.7703 5.29074 18.5749 5.25316C18.387 5.2231 17.8685 5.26068 17.5077 5.65147C17.41 6.26772 17.4326 7.4401 16.8539 8.83042C17.7182 8.04132 18.1315 6.48566 18.2668 6.03475C18.4847 6.33536 18.7252 7.01173 18.7853 7.58289C18.8905 8.69515 19.5744 10.5514 20.1531 11.4457C19.9953 11.7539 19.9427 12.1071 20.0028 12.4903C19.5519 12.8285 19.4993 13.2945 19.6571 13.6101C19.8224 13.9483 20.2734 14.1813 20.7919 13.9709L20.9573 13.9032C21.5059 13.6778 22.528 13.2494 23.768 13.2494C25.008 13.2494 26.0301 13.6778 26.5863 13.9032L26.7516 13.9709C27.2702 14.1813 27.7136 13.9483 27.8864 13.6101C28.0442 13.2945 27.9916 12.821 27.5407 12.4903C27.6008 12.077 27.5332 11.7012 27.3453 11.3706L27.3603 11.3856C28.42 9.87504 28.4952 6.98918 29.3669 6.17002C29.4421 7.18458 29.9757 8.01877 30.5093 8.1315C30.0884 7.43258 30.0884 6.04978 30.1185 5.4185Z" fill="black" fill-opacity="0.6"/>
<path d="M16.7261 28.9265L16.0723 28.934C15.9746 30.0689 16.0197 31.0985 16.1775 32.0454C16.5833 31.3765 16.9892 30.7077 16.9666 30.2417C16.9441 29.7532 16.8314 29.3173 16.7261 28.9265Z" fill="black" fill-opacity="0.6"/>
<path d="M19.0484 30.8878C19.2738 31.5116 19.5519 32.5036 19.7774 33.1951C19.582 33.2101 19.3941 33.2176 19.2137 33.2477C19.116 32.9997 18.7929 32.1805 18.4547 31.3838C18.139 30.6473 18.8906 30.4519 19.0484 30.8878ZM20.4162 30.2189C20.4688 29.8506 21.5059 29.783 21.3105 30.5872C21.1151 31.4064 20.8671 32.3608 20.6792 33.18H20.4162H20.1531C19.9653 32.3608 19.7172 31.4064 19.5218 30.5872C19.3264 29.783 20.3636 29.8581 20.4162 30.2189ZM22.3852 31.3913C22.047 32.188 21.7238 33.0072 21.6261 33.2552C21.4533 33.2251 21.2579 33.2101 21.07 33.2026C21.2955 32.5036 21.566 31.5191 21.799 30.8953C21.9493 30.4519 22.6933 30.6473 22.3852 31.3913ZM19.0484 33.7061C19.2738 33.6235 20.1531 33.5859 20.4162 33.5859C20.6792 33.5859 21.551 33.631 21.784 33.7061C21.8065 33.8264 21.8065 33.9917 21.7915 34.112C21.4533 34.2097 20.8596 34.2623 20.4162 34.2623C19.9728 34.2623 19.3791 34.2097 19.0409 34.112C19.0258 33.9917 19.0258 33.8264 19.0484 33.7061ZM21.5059 36.284C21.2128 36.3516 20.7393 36.3817 20.4237 36.3817C20.108 36.3817 19.6346 36.3516 19.334 36.284L19.4467 35.7955C19.2212 35.7729 18.9958 35.6902 18.8154 35.6226C18.9056 35.3069 19.0484 34.9838 19.1686 34.5479C19.5745 34.6381 19.9653 34.6756 20.4162 34.6756C20.8671 34.6756 21.2579 34.6381 21.6637 34.5479C21.784 34.9838 21.9268 35.3069 22.0245 35.6226C21.8441 35.6827 21.6111 35.7729 21.3932 35.7955C21.3932 35.803 21.5059 36.284 21.5059 36.284ZM17.0117 28.9187C17.1245 29.3095 17.2222 29.7454 17.2447 30.2189C17.2672 30.775 16.8539 31.459 16.418 32.188L16.2677 32.436C17.5228 38.6363 23.52 40.7031 23.52 40.7031V28.9337C23.52 28.9337 19.0033 28.9187 17.0117 28.9187Z" fill="black" fill-opacity="0.6"/>
<path d="M30.0959 30.0839L30.0733 29.7908H30.3664C30.7647 29.7908 30.9601 29.4075 31.0653 28.9642C29.5322 28.9491 24.016 28.9717 24.016 28.9717V34.6532C24.4744 34.315 24.9178 34.0294 25.4965 33.8491V32.6015H26.0677C26.0977 31.2262 26.4284 30.2342 27.0672 29.5804L27.2476 29.385L27.4354 29.5804C28.0742 30.2342 28.4049 31.2262 28.435 32.6015H29.0287V33.9317C29.66 34.1948 30.0808 34.5931 30.404 35.0139C30.9225 33.9543 31.3058 32.7293 31.4486 31.3089L31.3659 31.3164C30.7797 31.3239 30.1485 30.8956 30.0959 30.0839Z" fill="black" fill-opacity="0.6"/>
<path d="M31.4712 28.9716L31.3584 28.9641C31.2232 29.618 30.9226 30.0614 30.3815 30.0689C30.4266 30.7152 30.915 31.0459 31.381 31.0459L31.4937 31.0309C31.5313 30.377 31.5388 29.7006 31.4712 28.9716Z" fill="black" fill-opacity="0.6"/>
<path d="M28.6229 36.3291L28.1194 35.7579L27.2701 36.5169L27.6234 36.9153C27.6234 36.9153 27.9766 36.7499 28.2997 37.1107C28.0592 37.3211 27.6459 37.6819 27.4054 37.8848C27.0898 37.5165 27.3077 37.1933 27.3077 37.1933L26.962 36.795L25.9174 37.7269L25.5792 37.3361L26.6464 36.4418L26.2631 35.9984L25.9099 36.3065C25.6092 35.9533 25.3688 35.4873 25.5867 34.9011C26.1954 34.7658 26.6238 35.0664 26.9244 35.4122L26.5787 35.7203L26.962 36.1637L27.8338 35.4347L27.3303 34.8635C27.7812 34.8109 28.172 34.9687 28.3974 35.2243C28.6379 35.4798 28.7431 35.8932 28.6229 36.3291ZM27.2551 34.1345C25.5867 34.1345 24.9404 34.6005 24.016 35.2994V40.7332C24.016 40.7332 27.9841 39.3728 30.141 35.5399C29.6525 34.7959 28.9235 34.1345 27.2551 34.1345Z" fill="black" fill-opacity="0.6"/>
<path d="M17.4401 24.3119C18.2743 23.8385 18.7027 23.4928 19.1461 22.7939C18.823 22.6361 18.4322 22.343 18.1391 21.9372C19.7248 22.3806 20.5289 22.6136 22.4003 21.9522C22.0921 22.4332 21.6412 22.7188 21.2579 22.9668C21.6788 23.6656 22.0996 24.4622 22.25 25.101C21.6938 25.0559 21.055 25.1912 20.6041 25.6045C19.9052 25.6346 19.0184 25.86 18.5299 24.2744C18.2819 24.4021 18.0263 24.5749 18.0263 24.5749C18.3119 25.612 18.838 26.3184 20.2358 26.1681C20.311 26.4988 20.3711 26.6866 20.544 26.9647C19.9728 27.2954 18.5374 28.1445 17.4401 27.1751C17.4401 27.1601 17.4401 24.3119 17.4401 24.3119ZM22.6858 26.6491C22.5355 26.8595 21.6412 27.1375 21.4233 26.9948C21.0475 26.7693 20.8596 26.2733 20.9498 26.0629C21.055 25.7924 22.047 25.5143 22.3627 25.6195C22.6783 25.7247 22.8136 26.4687 22.6858 26.6491ZM25.3613 25.4542V25.1611L24.6624 25.1536C24.8277 24.4171 26.2631 23.4778 26.9095 23.2598C26.8719 22.4557 27.9315 22.1927 28.7808 22.1702C29.8329 22.1401 30.0809 23.2674 30.0809 23.6206C30.0809 24.0865 29.9607 25.116 29.3745 25.4317C28.5328 25.8826 27.8113 25.2438 27.8113 24.6651C27.8113 24.0339 28.2547 23.6581 29.0137 23.7408C29.7728 23.8235 29.7202 23.3951 29.1415 23.2523C28.8634 23.1847 27.6535 23.1246 27.2552 24.0188C27.0222 24.0264 26.7742 23.9362 26.6314 23.7934C26.4736 23.9963 26.2331 24.1316 25.8949 24.2293C26.188 24.8229 26.7817 24.7252 27.1499 24.4397L27.1349 24.6952C27.1349 26.1606 28.6981 26.5288 29.6601 25.9802C29.5022 26.4537 29.5774 27.0549 29.6375 27.4607H25.8573C25.925 27.0549 26.4285 26.5965 26.8493 26.2959L26.5111 25.7623C26.0978 25.9427 25.7145 26.108 25.2711 26.2207C24.2115 26.4988 24.2716 25.7548 25.3613 25.4542ZM16.2978 26.0103C16.7187 26.356 16.8765 26.6115 16.7487 27.7763C16.7337 27.9191 16.8089 28.1972 16.8915 28.4902H31.1406C31.1556 28.3324 31.1631 28.1821 31.1631 28.0544C31.1782 27.4156 31.0579 26.9046 30.855 26.6942C30.7874 26.6265 30.7122 26.589 30.5769 26.589H30.5619L29.9907 26.6491L30.2914 26.1606C30.592 25.6796 31.0128 25.4091 31.4637 25.3715V21.1406H16.1024V25.86L16.2602 25.9577L16.2978 26.0103Z" fill="black" fill-opacity="0.6"/>
<path d="M16.1024 26.2061V28.491H16.6058C16.5157 28.1903 16.448 27.9273 16.4706 27.7394C16.5983 26.5894 16.4255 26.4691 16.1024 26.2061Z" fill="black" fill-opacity="0.6"/>
<path d="M31.4712 28.4902V25.6572C31.1405 25.6873 30.7948 25.8977 30.5317 26.3185L30.6144 26.311C31.2457 26.311 31.4637 27.1752 31.4486 28.0544C31.4486 28.2047 31.4411 28.3475 31.4261 28.4902H31.4712Z" fill="black" fill-opacity="0.6"/>
<path d="M19.8375 24.6052C20.1006 24.7329 20.4237 24.5827 20.7694 24.6278C20.7018 24.4775 20.6341 24.3724 20.6717 24.1621C20.7544 23.749 20.4312 23.6438 20.2734 23.6588C19.8901 23.6814 19.6722 23.764 19.2664 23.6588C19.5444 23.9292 19.4693 24.4325 19.8375 24.6052Z" fill="black" fill-opacity="0.6"/>
<path d="M16.4932 27.724C16.6284 26.5441 16.4406 26.4464 16.1024 26.1683C15.8093 25.9278 15.3208 25.8527 14.8323 25.5145C14.4866 25.274 14.3889 24.9283 13.9455 24.4623C14.0356 23.4628 14.7421 22.2528 15.2682 21.9748C15.3433 21.9372 15.3208 20.3966 15.3208 20.3966C15.3208 20.3966 15.6665 20.3815 15.6364 20.359C15.1705 20.0734 14.5993 20.2913 14.1935 20.7723C13.7952 21.088 12.8858 21.7042 12.262 21.9146C11.4128 21.2007 10.0901 20.5694 9.12062 19.5999C9.12062 19.5999 10.3982 19.5924 10.9919 19.3444C11.1498 19.2467 11.5556 18.5929 11.3903 17.9691C11.1873 17.9015 10.9018 17.7512 10.6237 17.5934C10.2705 17.3904 9.93228 17.18 9.77445 17.0598C9.21832 16.6389 8.99286 16.2707 8.0309 16.0302C8.09102 15.5868 8.18872 15.692 8.60958 15.4064C9.15068 15.0382 9.45129 14.6023 9.66172 14.1739C9.82706 13.8357 9.63918 13.1368 9.20329 14.0236C9.05298 14.3392 8.63212 14.7526 8.15866 14.8803C8.19623 14.6098 8.21127 14.452 8.21127 14.3017C9.61663 13.3097 9.48136 12.4304 9.36863 11.6112C9.3085 11.1377 8.83504 10.9348 8.85007 11.4308C8.8651 11.754 9.1582 12.6859 8.18872 13.2345C8.16617 12.8212 8.05344 12.6333 7.97078 12.4229C8.82752 11.2956 8.46679 10.2058 8.10605 9.70983C7.87308 9.39419 7.30943 9.28146 7.56495 9.78499C7.77538 10.1983 8.11357 11.3106 7.48228 11.769C7.26433 11.491 7.00881 11.3857 6.92614 11.0175C7.00881 9.77747 6.93366 9.02594 6.77584 8.59757C6.62553 8.19175 6.23473 7.93623 6.27231 8.53745C6.30237 9.22134 6.36249 10.0781 6.30237 10.1307C6.24225 10.1833 5.33289 9.34158 4.96464 9.08607C4.58888 8.83055 4.14547 8.92824 4.58136 9.43177C4.96464 9.87517 6.122 10.7319 5.9717 11.01C5.88151 11.1828 5.04731 10.4989 4.61894 10.3561C4.18305 10.2058 4.04777 10.4388 4.41602 10.7394C5.00973 11.2204 5.40053 11.5436 6.37001 11.8667C7.33949 12.1899 7.82798 13.5351 7.51986 15.459C7.50482 15.5492 7.33949 15.5342 7.24179 15.5041C7.1967 14.7751 7.06894 13.8958 6.89608 13.505C6.66311 12.994 6.21219 12.9865 6.37752 13.6779C6.5128 14.219 6.58795 14.8052 6.49025 15.5342C5.68611 15.3989 5.3855 15.181 5.04731 14.9856C5.00973 14.6098 5.20513 14.0011 5.23519 13.4524C5.26526 12.9113 4.94961 12.5732 4.76924 13.2495C4.59639 13.8958 4.48366 14.2115 4.37845 14.6774C4.14547 14.6023 3.90498 14.4971 3.79225 14.3693L3.73213 13.0466C3.67201 12.4454 3.44655 12.4679 3.27369 12.994C3.19102 13.2345 3.12339 13.5577 3.10084 13.9485C2.81526 13.7756 2.62737 13.4524 2.59731 13.1894C2.64241 12.5656 2.74762 11.9043 2.82277 11.491C2.87538 11.1903 2.67247 10.5891 2.43949 11.3181C2.27415 11.8442 2.22906 12.2801 2.12385 12.6483C1.92093 12.6333 1.65038 11.4459 1.51511 10.6868C1.45498 10.3411 1.16189 9.95032 1.10928 10.7169C1.04916 11.5661 1.22952 12.4229 1.43995 12.7986C1.02661 12.7535 0.635812 12.017 0.35023 11.5811C0.0947083 11.1979 -0.025537 11.5962 0.00452434 11.754C0.25253 13.2646 1.45498 13.7981 2.0036 13.9109C2.84532 15.1208 4.46111 15.6469 5.82891 16.2331C4.05529 16.2106 3.58934 16.9245 2.77768 16.4586C2.81526 17.1274 3.14593 17.4355 3.46909 17.5934C3.69455 17.6986 3.92001 17.7286 4.02523 17.7512C4.17553 18.5628 4.9421 18.5177 5.60345 18.5628C5.43811 20.1486 5.62599 22.2378 7.01633 23.801C6.97875 24.6051 6.91863 25.6573 6.93366 26.3562C5.79133 27.4158 4.77676 29.6328 4.37845 30.8578C4.07783 31.7747 3.62691 32.4886 2.92799 32.8268C3.49915 33.4281 4.34087 33.1274 4.82937 32.7968C4.85943 33.3379 4.98719 33.7136 5.06986 34.0368C4.7467 34.5178 4.52124 34.856 4.5513 35.4497C4.18305 35.5549 3.92753 35.7803 3.73213 36.0283C3.60437 36.1862 3.75467 36.9151 3.88995 37.2233C4.34087 38.2378 3.98765 40.5375 3.9125 41.2139C4.10789 41.2214 4.4536 41.2364 4.52875 40.9509C4.64148 41.0561 4.91955 41.259 5.04731 41.6949C5.01725 41.8828 4.91203 42.5892 5.27277 42.6794C5.56587 42.7545 6.84348 42.7094 7.01633 42.4915C6.88857 42.3412 6.66311 42.003 6.52783 41.6648C6.52783 41.3191 6.49777 40.8982 6.40007 40.7179C6.24976 40.4624 5.88151 39.8762 5.64854 39.6357C5.59593 39.2148 5.55835 37.3435 5.75375 36.6221C6.08443 36.3966 8.33151 34.7282 8.79746 33.1274C9.2108 33.2702 9.08304 34.3825 9.08304 35.8254C9.08304 36.2162 9.55651 36.4116 9.83458 36.4417C10.4433 36.5168 11.3076 37.0955 12.2771 38.5309C12.4649 38.328 12.7129 38.1401 12.7129 38.1401C12.8407 38.3055 12.9835 38.7188 13.0737 38.9894C13.1789 39.1848 13.9605 39.305 14.5617 39.1246C14.7571 39.057 14.8774 39.0194 15.0051 38.809C14.2461 37.4788 13.7876 36.5995 12.8106 35.863C12.3597 35.5248 11.751 35.352 11.2475 35.0288C11.5856 34.39 12.5175 31.414 11.9539 30.3242C11.766 29.9635 11.0596 29.6103 10.1953 29.7681C10.9168 28.9039 12.3748 27.1904 12.5702 26.6643C12.7355 26.8672 13.5998 26.7244 14.2461 26.9799C14.4791 27.0776 15.1404 27.9269 15.1705 28.22C15.2306 28.746 15.2531 29.3698 14.8924 30.8127C15.1479 30.7677 15.1103 30.7601 15.3659 30.6549C15.411 31.0382 15.2907 31.3388 14.9525 31.9175C15.0352 32.436 15.2682 33.2402 15.5162 33.383C15.8393 32.4135 17.0493 31.0382 17.0117 30.2265C16.9441 29.1218 16.433 28.1974 16.4932 27.724Z" fill="black" fill-opacity="0.6"/>
<path d="M62.983 21.4861C62.75 20.7571 61.9834 19.6524 60.4353 19.6524C59.4508 19.6524 58.6015 20.1559 58.1807 20.9225C57.6772 21.8619 57.4517 23.132 57.4517 24.8831C57.4517 27.3857 57.865 28.9564 58.7443 29.5802C59.2028 29.9109 59.789 30.0837 60.4804 30.0837C62.502 30.0837 63.3587 28.5356 63.3587 24.8455C63.3587 23.365 63.231 22.2978 62.983 21.4861ZM67.4696 34.5479C67.4696 34.5479 67.0488 34.7959 66.177 34.7959C65.0497 34.7959 64.0502 34.127 63.5091 33.7738C62.8176 33.3154 61.6903 32.669 60.5706 32.3158C58.3986 32.3158 56.9782 31.7146 55.8735 30.2716C54.7687 28.8512 54.2051 27.0175 54.2051 24.8906C54.2051 21.7642 55.3925 19.239 57.4818 18.1117C58.3385 17.6533 59.3982 17.4053 60.4879 17.4053C64.3508 17.4053 66.7256 20.2235 66.7256 24.7704C66.7256 27.9193 65.5983 30.2791 63.8698 31.429C64.2681 31.5718 64.8317 31.9476 65.1624 32.158C65.681 32.4661 66.3123 32.7592 66.9586 32.7592C67.5824 32.7592 68.2512 32.654 68.2512 32.654L67.4696 34.5479Z" fill="black" fill-opacity="0.6"/>
<path d="M76.1874 32.3762C75.8341 32.1282 75.541 31.775 75.3532 31.3316C74.6618 32.0005 73.6622 32.3537 72.5349 32.3537C71.0319 32.3537 69.7393 31.6472 69.386 30.6176C69.2207 30.1367 69.1531 29.573 69.1531 28.4908V21.6519L71.9112 21.1333V27.9948C71.9112 28.9568 71.9938 29.4528 72.1441 29.7459C72.2869 30.039 72.7078 30.2494 73.1286 30.2494C73.8201 30.2494 74.6542 29.7459 74.8572 29.2273V21.7195L77.5251 21.1558V29.31C77.5251 30.0164 77.758 30.7529 78.1714 31.2489L76.1874 32.3762Z" fill="black" fill-opacity="0.6"/>
<path d="M86.3631 25.4468C86.3631 24.6577 86.2804 24.2368 86.0324 23.8385C85.7619 23.4177 85.3636 23.2148 84.7999 23.2148C83.7327 23.2148 83.1315 24.049 83.1315 25.5295V25.5746H86.3631V25.4468ZM83.0864 27.6187V27.7014C83.0864 29.3473 83.8981 30.2867 85.341 30.2867C86.303 30.2867 87.1973 29.9334 88.0541 29.2195L89.1363 30.8879C87.9038 31.8874 86.6111 32.3684 85.1081 32.3684C82.0418 32.3684 80.0577 30.1965 80.0577 26.8447C80.0577 24.9207 80.4561 23.6507 81.3955 22.606C82.2748 21.6215 83.3344 21.1631 84.7548 21.1631C85.9873 21.1631 87.1522 21.5839 87.8436 22.2904C88.8281 23.2899 89.264 24.7329 89.264 26.9649V27.6112L83.0864 27.6187Z" fill="black" fill-opacity="0.6"/>
<path d="M97.1702 25.4468C97.1702 24.6577 97.0875 24.2368 96.832 23.8385C96.5614 23.4177 96.1631 23.2148 95.5995 23.2148C94.5323 23.2148 93.9311 24.049 93.9311 25.5295V25.5746H97.1627L97.1702 25.4468ZM93.8935 27.6187V27.7014C93.8935 29.3473 94.7051 30.2867 96.1481 30.2867C97.11 30.2867 98.0044 29.9334 98.8611 29.2195L99.9509 30.8879C98.7183 31.8874 97.4257 32.3684 95.9226 32.3684C92.8564 32.3684 90.8723 30.1965 90.8723 26.8447C90.8723 24.9207 91.2706 23.6507 92.21 22.606C93.0893 21.6215 94.149 21.1631 95.5694 21.1631C96.8019 21.1631 97.9668 21.5839 98.6582 22.2904C99.6352 23.2899 100.079 24.7329 100.079 26.9649V27.6112L93.8935 27.6187Z" fill="black" fill-opacity="0.6"/>
<path d="M107.977 32.0828V25.1387C107.977 23.9288 107.767 23.5756 107.038 23.5756C106.474 23.5756 105.745 23.9513 105.099 24.5375V32.0903H102.303V24.3496C102.303 23.4328 102.175 22.5535 101.927 21.8471L104.407 21.1406C104.655 21.5765 104.806 22.0349 104.806 22.4783C105.219 22.1852 105.58 21.9372 106.038 21.6817C106.602 21.3886 107.331 21.2233 107.955 21.2233C109.142 21.2233 110.187 21.8471 110.517 22.7639C110.66 23.1622 110.728 23.6207 110.728 24.2895V32.0903L107.977 32.0828Z" fill="black" fill-opacity="0.6"/>
<path d="M117.063 32.4136C115.748 32.4136 114.313 31.9927 112.75 31.1811L113.749 29.1369C114.606 29.6555 116.086 30.3469 117.296 30.3469C118.085 30.3469 118.717 29.8283 118.717 29.1369C118.717 28.4079 118.198 28.0321 117.071 27.8217L115.823 27.5887C115.117 27.461 114.238 26.965 113.862 26.5065C113.486 26.0481 113.261 25.274 113.261 24.5901C113.261 22.5009 114.906 21.103 117.386 21.103C119.1 21.103 120.227 21.6216 121.204 22.1026L120.287 23.9814C119.228 23.4403 118.454 23.2073 117.657 23.2073C116.845 23.2073 116.304 23.6282 116.304 24.2519C116.304 24.793 116.657 25.0861 117.642 25.3341L118.935 25.6648C120.25 25.9955 120.686 26.3938 121.061 26.8748C121.46 27.3783 121.648 27.9795 121.648 28.6935C121.64 30.9105 119.799 32.4136 117.063 32.4136Z" fill="black" fill-opacity="0.6"/>
<path d="M126.6 32.3306C125.413 32.3306 124.451 31.7669 124.12 30.8726C123.91 30.3315 123.872 29.9933 123.872 28.4753V20.5091C123.872 19.1113 123.835 18.2546 123.722 17.3001L126.578 16.6538C126.683 17.24 126.728 17.9239 126.728 19.4269V27.7538C126.728 29.5875 126.751 29.843 126.916 30.1286C127.021 30.3165 127.247 30.4217 127.48 30.4217C127.585 30.4217 127.645 30.4217 127.788 30.3766L128.269 32.045C127.788 32.2329 127.201 32.3306 126.6 32.3306Z" fill="black" fill-opacity="0.6"/>
<path d="M134.732 27.4086C132.793 27.4086 132.124 27.7618 132.124 29.0394C132.124 29.8735 132.643 30.4372 133.356 30.4372C133.883 30.4372 134.401 30.1666 134.822 29.7082L134.86 27.4161H134.732V27.4086ZM137.107 32.624C136.46 32.3535 135.874 31.8725 135.604 31.3314C135.393 31.5419 135.168 31.7523 134.957 31.8951C134.439 32.2708 133.687 32.4812 132.808 32.4812C130.433 32.4812 129.133 31.2713 129.133 29.1446C129.133 26.6421 130.861 25.4773 134.266 25.4773C134.476 25.4773 134.664 25.4773 134.89 25.4998V25.064C134.89 23.8766 134.664 23.4783 133.642 23.4783C132.748 23.4783 131.703 23.9142 130.553 24.6882L129.366 22.6817C129.93 22.3285 130.343 22.1181 131.094 21.8025C132.139 21.3666 133.033 21.1787 134.01 21.1787C135.806 21.1787 137.039 21.8475 137.452 23.0349C137.603 23.4708 137.663 23.809 137.64 24.9512L137.58 28.5434C137.558 29.7082 137.64 30.2117 138.58 30.9256L137.107 32.624Z" fill="black" fill-opacity="0.6"/>
<path d="M146.478 32.0828V25.1387C146.478 23.9288 146.268 23.5756 145.539 23.5756C144.975 23.5756 144.246 23.9513 143.6 24.5375V32.0903H140.804V24.3496C140.804 23.4328 140.676 22.5535 140.428 21.8471L142.909 21.1406C143.157 21.5765 143.307 22.0349 143.307 22.4783C143.72 22.1852 144.081 21.9372 144.539 21.6817C145.103 21.3886 145.832 21.2233 146.456 21.2233C147.643 21.2233 148.688 21.8471 149.018 22.7639C149.169 23.1622 149.229 23.6207 149.229 24.2895V32.0903L146.478 32.0828Z" fill="black" fill-opacity="0.6"/>
<path d="M158.195 24.2143C157.676 23.7558 157.173 23.5229 156.669 23.5229C155.414 23.5229 154.873 24.5675 154.873 26.9423C154.873 29.2344 155.354 29.986 156.812 29.986C157.338 29.986 157.917 29.6328 158.187 29.2946L158.195 24.2143ZM158.826 32.0827C158.743 31.9174 158.706 31.7521 158.661 31.459C157.969 32.0677 157.158 32.3533 156.196 32.3533C153.483 32.3533 151.777 30.249 151.777 26.9273C151.777 23.5905 153.633 21.2908 156.346 21.2908C157.12 21.2908 157.721 21.4787 158.247 21.8996C158.202 21.6666 158.165 20.9376 158.165 20.3139V16.6389L160.938 17.0748V28.1748C160.938 30.8051 161.141 31.6544 161.336 32.0752H158.826" fill="black" fill-opacity="0.6"/>
<path d="M174.075 32.3159C172.278 32.3159 170.76 31.6921 169.671 30.5197C168.461 29.2046 167.897 27.4309 167.897 24.9659C167.897 22.2303 168.626 20.2913 170.106 18.9536C171.129 18.0367 172.361 17.6008 173.842 17.6008C175.367 17.6008 176.682 18.0818 177.764 19.0212L176.99 20.0884C175.826 19.2918 174.991 18.9837 173.887 18.9837C172.218 18.9837 170.903 19.7577 170.317 21.4036C169.941 22.4708 169.753 23.6808 169.753 25.0335C169.753 26.9124 170.106 28.4305 170.753 29.3699C171.399 30.3093 172.857 30.8955 174.217 30.8955C175.112 30.8955 175.886 30.7076 176.494 30.3319V25.9729H173.609L173.27 24.5525H178.088V31.2262C177.073 31.8951 175.532 32.3159 174.075 32.3159Z" fill="black" fill-opacity="0.6"/>
<path d="M187.001 24.049C186.565 23.1321 185.648 22.7112 184.791 22.7112C183.875 22.7112 183.018 23.1471 182.665 23.8385C182.334 24.4848 182.161 25.319 182.161 26.5515C182.161 28.0095 182.417 29.3021 182.807 29.9559C183.183 30.5797 184.017 31.0005 184.912 31.0005C185.994 31.0005 186.813 30.4369 187.166 29.4374C187.399 28.7911 187.482 28.2049 187.482 27.1828C187.482 25.7173 187.339 24.7404 187.001 24.049ZM184.874 32.3533C182.018 32.3533 180.387 30.249 180.387 26.8221C180.387 23.4402 182.078 21.3735 184.814 21.3735C186.542 21.3735 187.67 22.1701 188.384 23.1847C189.03 24.1241 189.346 25.3566 189.346 27.0475C189.338 30.5196 187.482 32.3533 184.874 32.3533Z" fill="black" fill-opacity="0.6"/>
<path d="M195.305 32.1887H193.697L189.962 21.7795L191.63 21.4263L194.05 28.5812C194.343 29.438 194.554 30.3549 194.554 30.3549H194.599C194.599 30.3549 194.764 29.5432 195.102 28.6037L197.485 21.6968H199.213L195.305 32.1887Z" fill="black" fill-opacity="0.6"/>
<path d="M206.187 23.6132C205.834 23.0496 205.098 22.6964 204.309 22.6964C202.828 22.6964 201.994 23.7786 201.911 25.9279H206.668C206.646 24.8006 206.503 24.1167 206.187 23.6132ZM201.911 27.1604V27.4084C201.911 28.3854 202.039 29.1445 202.392 29.6856C202.978 30.5799 203.933 30.9557 204.978 30.9557C205.977 30.9557 206.796 30.64 207.525 29.9787L208.149 31.0233C207.232 31.8575 205.977 32.3159 204.647 32.3159C201.769 32.3159 200.04 30.2267 200.04 26.7847C200.04 25.0336 200.416 23.9063 201.295 22.8617C202.129 21.8772 203.151 21.4263 204.406 21.4263C205.534 21.4263 206.511 21.8246 207.225 22.5536C208.119 23.4704 208.412 24.4549 208.412 26.935V27.1679L201.911 27.1604Z" fill="black" fill-opacity="0.6"/>
<path d="M215.221 23.2598C215.116 23.2147 214.928 23.1771 214.763 23.1771C214.139 23.1771 213.507 23.4477 213.034 23.9287C212.553 24.4097 212.425 24.7253 212.425 25.5746V32.083H210.802V24.0715C210.802 22.5458 210.449 21.8619 210.449 21.8619L212.072 21.426C212.072 21.426 212.47 22.2377 212.41 23.117C213.162 22.0573 214.267 21.3884 215.334 21.3884C215.604 21.3884 215.897 21.4936 215.897 21.4936L215.221 23.2598Z" fill="black" fill-opacity="0.6"/>
<path d="M222.819 32.083V25.0561C222.819 23.9513 222.736 23.6808 222.443 23.32C222.218 23.0495 221.774 22.8841 221.293 22.8841C220.459 22.8841 219.166 23.553 218.415 24.3421V32.083H216.829V24.0716C216.829 22.591 216.431 21.8771 216.431 21.8771L218.017 21.4412C218.017 21.4412 218.392 22.2153 218.392 23.072C219.475 21.9898 220.564 21.4637 221.669 21.4637C222.796 21.4637 223.796 22.0725 224.217 22.9893C224.382 23.3651 224.465 23.786 224.465 24.1993V32.083H222.819Z" fill="black" fill-opacity="0.6"/>
<path d="M238.999 32.083V24.4096C238.999 23.4101 238.541 22.884 237.662 22.884C236.722 22.884 235.993 23.4927 234.911 24.4923V32.083H233.265V24.6952C233.265 24.0714 233.198 23.6506 232.972 23.3575C232.724 23.0644 232.386 22.9366 231.912 22.9366C231.123 22.9366 230.349 23.3349 229.26 24.3119V32.0755H227.696V24.0263C227.696 22.5232 227.321 21.8168 227.321 21.8168L228.906 21.441C228.906 21.441 229.282 22.2527 229.282 22.9817C229.966 22.2076 231.244 21.4185 232.303 21.4185C233.325 21.4185 234.347 22.0422 234.723 23.1545C235.723 22.0873 236.993 21.4185 238.06 21.4185C239.601 21.4185 240.668 22.5909 240.668 24.2368V32.083H238.999Z" fill="black" fill-opacity="0.6"/>
<path d="M249.431 23.6132C249.077 23.0496 248.348 22.6964 247.552 22.6964C246.071 22.6964 245.237 23.7786 245.147 25.9279H249.904C249.889 24.8006 249.746 24.1167 249.431 23.6132ZM245.154 27.1604V27.4084C245.154 28.3854 245.282 29.1445 245.635 29.6856C246.222 30.5799 247.176 30.9557 248.221 30.9557C249.22 30.9557 250.039 30.64 250.768 29.9787L251.392 31.0233C250.475 31.8575 249.22 32.3159 247.89 32.3159C245.012 32.3159 243.276 30.2267 243.276 26.7847C243.276 25.0336 243.651 23.9063 244.531 22.8617C245.365 21.8772 246.387 21.4263 247.642 21.4263C248.769 21.4263 249.746 21.8246 250.46 22.5536C251.355 23.4704 251.648 24.4549 251.648 26.935V27.1679L245.154 27.1604Z" fill="black" fill-opacity="0.6"/>
<path d="M260.027 32.083V25.0561C260.027 23.9513 259.945 23.6808 259.652 23.32C259.426 23.0495 258.983 22.8841 258.509 22.8841C257.675 22.8841 256.382 23.553 255.631 24.3421V32.083H254.045V24.0716C254.045 22.591 253.647 21.8771 253.647 21.8771L255.233 21.4412C255.233 21.4412 255.608 22.2153 255.608 23.072C256.698 21.9898 257.78 21.4637 258.885 21.4637C260.012 21.4637 261.012 22.0725 261.433 22.9893C261.605 23.3651 261.681 23.786 261.681 24.1993V32.083H260.027Z" fill="black" fill-opacity="0.6"/>
<path d="M268.685 22.9218H266.513V29.6179C266.513 30.7678 266.829 31.1661 267.851 31.1661C268.309 31.1661 268.58 31.106 268.873 30.9557L269.106 32.0003C268.58 32.2708 268.001 32.4211 267.272 32.4211C266.731 32.4211 266.31 32.3159 265.919 32.128C265.19 31.7748 264.92 31.106 264.92 30.0613V22.9293H263.567V21.6968H264.92C264.92 20.6973 265.085 19.0664 265.085 19.0664L266.799 18.6907C266.799 18.6907 266.588 20.314 266.588 21.6968H269.196L268.685 22.9218Z" fill="black" fill-opacity="0.6"/>
</svg>
