<svg width="81" height="82" viewBox="0 0 81 82" fill="none" xmlns="http://www.w3.org/2000/svg">
<path d="M40.4616 68.7862C34.9027 68.8377 29.454 67.2349 24.809 64.1817C20.1641 61.1285 16.5327 56.763 14.3769 51.6406C12.2212 46.5182 11.6385 40.8705 12.703 35.4161C13.7676 29.9616 16.4312 24.9471 20.355 21.0104C24.2788 17.0737 29.2854 14.393 34.7378 13.3092C40.1902 12.2254 45.8418 12.7876 50.9737 14.9242C56.1055 17.0608 60.4855 20.6752 63.5564 25.3076C66.6273 29.9401 68.2503 35.381 68.2187 40.9382C68.2669 44.6001 67.5825 48.2348 66.2059 51.6286C64.8293 55.0225 62.7882 58.1072 60.2024 60.7014C57.6166 63.2957 54.5382 65.3472 51.1482 66.7356C47.7582 68.124 44.1249 68.8211 40.4616 68.7862ZM40.4616 0.766769C32.5312 0.810242 24.7913 3.20079 18.2185 7.63683C11.6458 12.0729 6.53463 18.3557 3.52989 25.6925C0.525147 33.0292 -0.238476 41.0913 1.33529 48.8615C2.90906 56.6317 6.74974 63.7618 12.3728 69.3523C17.9958 74.9428 25.1491 78.7432 32.9304 80.2739C40.7117 81.8046 48.7722 80.9972 56.0949 77.9533C63.4176 74.9095 69.6744 69.7657 74.0759 63.171C78.4774 56.5763 80.8264 48.8261 80.8265 40.8982C80.7841 30.2296 76.5108 20.0133 68.9438 12.49C61.3768 4.96677 51.1338 0.750793 40.4616 0.766769Z" fill="white"/>
</svg>
